#tb 0: 1/44100
#media_type 0: audio
#codec_id 0: pcm_s16le
#sample_rate 0: 44100
#channel_layout_name 0: mono
0,          0,          0,     1152,     2304, 0x4cffbc3b
0,      26496,      26496,     1152,     2304, 0x616c78e6
0,      52992,      52992,     1152,     2304, 0x3efa65c1
0,      79488,      79488,     1152,     2304, 0x4cb18644
0,     105984,     105984,     1152,     2304, 0xbe136a3a
0,     132480,     132480,     1152,     2304, 0x8eda8d57
0,     158976,     158976,     1152,     2304, 0x8fda871e
0,     185472,     185472,     1152,     2304, 0x7e4b6e0a
0,     211968,     211968,     1152,     2304, 0xef447a62
0,     238464,     238464,     1152,     2304, 0x417181c1
0,     264960,     264960,     1152,     2304, 0xfa7973f0
0,     291456,     291456,     1152,     2304, 0x65e6854c
0,     317952,     317952,     1152,     2304, 0x57c2656a
0,     344448,     344448,     1152,     2304, 0x32227a0d
0,     370944,     370944,     1152,     2304, 0x895773ad
0,     397440,     397440,     1152,     2304, 0x6e3b7b87
0,     423936,     423936,     1152,     2304, 0x472e8b25
0,     450432,     450432,     1152,     2304, 0x193f7e3b
0,     476928,     476928,     1152,     2304, 0x634b82a5
0,     503424,     503424,     1152,     2304, 0xa792783a
0,     529920,     529920,     1152,     2304, 0xc2b19032
0,     556416,     556416,     1152,     2304, 0x7a8a7634
0,     582912,     582912,     1152,     2304, 0x551a7c96
0,     609408,     609408,     1152,     2304, 0xf21e80d5
0,     635904,     635904,     1152,     2304, 0xa0927c10
0,     662400,     662400,     1152,     2304, 0x7abe8049
0,     688896,     688896,     1152,     2304, 0xca03796b
0,     715392,     715392,     1152,     2304, 0xf7c47d03
0,     741888,     741888,     1152,     2304, 0xb6537988
0,     768384,     768384,     1152,     2304, 0xd5f27ccd
0,     794880,     794880,     1152,     2304, 0xcf567fe0
0,     821376,     821376,     1152,     2304, 0x35df6f7b
0,     847872,     847872,     1152,     2304, 0xbd5676b8
0,     874368,     874368,     1152,     2304, 0x64b7754d
0,     900864,     900864,     1152,     2304, 0x230b58fe
0,     927360,     927360,     1152,     2304, 0xe1e07cb1
0,     953856,     953856,     1152,     2304, 0x1114751b
0,     980352,     980352,     1152,     2304, 0x85af7edf
0,    1006848,    1006848,     1152,     2304, 0xddae788c
0,    1033344,    1033344,     1152,     2304, 0x8cce7df5
0,    1059840,    1059840,     1152,     2304, 0x688278d7
0,    1086336,    1086336,     1152,     2304, 0x6e7671f3
0,    1112832,    1112832,     1152,     2304, 0x088577d9
0,    1139328,    1139328,     1152,     2304, 0x1fe1745d
0,    1165824,    1165824,     1152,     2304, 0x6b1881d9
0,    1192320,    1192320,     1152,     2304, 0x9efb7778
0,    1218816,    1218816,     1152,     2304, 0xa4a67f94
0,    1245312,    1245312,     1152,     2304, 0x0ffa9081
0,    1271808,    1271808,     1152,     2304, 0x88966ce3
0,    1298304,    1298304,     1152,     2304, 0xa33294f3
0,    1324800,    1324800,     1152,     2304, 0xb3fe88a2
0,    1351296,    1351296,     1152,     2304, 0x59c762f9
0,    1377792,    1377792,     1152,     2304, 0xf060785a
0,    1404288,    1404288,     1152,     2304, 0x8ef181c5
0,    1430784,    1430784,     1152,     2304, 0x1b2377d5
0,    1457280,    1457280,     1152,     2304, 0x984780c5
0,    1483776,    1483776,     1152,     2304, 0xc9c28f9c
0,    1510272,    1510272,     1152,     2304, 0xbd408e11
0,    1536768,    1536768,     1152,     2304, 0xce317c52
0,    1563264,    1563264,     1152,     2304, 0xa03c8013
0,    1589760,    1589760,     1152,     2304, 0x136c81d8
0,    1616256,    1616256,     1152,     2304, 0x4f647cbc
0,    1642752,    1642752,     1152,     2304, 0xa1b779ee
0,    1669248,    1669248,     1152,     2304, 0x0aae88f1
0,    1695744,    1695744,     1152,     2304, 0x4043749e
0,    1722240,    1722240,     1152,     2304, 0x2ab88c2e
0,    1748736,    1748736,     1152,     2304, 0x4f897bd8
0,    1775232,    1775232,     1152,     2304, 0xf99f75b4
0,    1801728,    1801728,     1152,     2304, 0x5975743e
0,    1828224,    1828224,     1152,     2304, 0xa5b4879f
0,    1854720,    1854720,     1152,     2304, 0x4a197f5d
0,    1881216,    1881216,     1152,     2304, 0xea177c5b
0,    1907712,    1907712,     1152,     2304, 0x05e17e17
0,    1934208,    1934208,     1152,     2304, 0x37c37d25
0,    1960704,    1960704,     1152,     2304, 0x5f888150
0,    1987200,    1987200,     1152,     2304, 0x473e7315
0,    2013696,    2013696,     1152,     2304, 0x8ccb829d
0,    2040192,    2040192,     1152,     2304, 0x8ee175eb
0,    2066688,    2066688,     1152,     2304, 0x068d6c7a
0,    2093184,    2093184,     1152,     2304, 0x98c375cf
0,    2119680,    2119680,     1152,     2304, 0x3f9371a2
0,    2146176,    2146176,     1152,     2304, 0x3f9f6721
0,    2172672,    2172672,     1152,     2304, 0x0fc2661c
0,    2199168,    2199168,     1152,     2304, 0xa2298728
0,    2225664,    2225664,     1152,     2304, 0x15447aa0
0,    2252160,    2252160,     1152,     2304, 0xf62b8e5a
0,    2278656,    2278656,     1152,     2304, 0x191d837a
0,    2305152,    2305152,     1152,     2304, 0x24d980c9
0,    2331648,    2331648,     1152,     2304, 0x1fc379d2
0,    2358144,    2358144,     1152,     2304, 0x76988ab4
0,    2384640,    2384640,     1152,     2304, 0x0b327c04
0,    2411136,    2411136,     1152,     2304, 0xc0a786b1
0,    2437632,    2437632,     1152,     2304, 0x547e6f60
0,    2464128,    2464128,     1152,     2304, 0x64ab74dd
0,    2490624,    2490624,     1152,     2304, 0xf81377af
0,    2517120,    2517120,     1152,     2304, 0xdfcf7ba2
0,    2543616,    2543616,     1152,     2304, 0x0edf6949
0,    2570112,    2570112,     1152,     2304, 0xb75d88b3
0,    2596608,    2596608,     1152,     2304, 0xccf06f6b
0,    2623104,    2623104,     1152,     2304, 0xbacd8458
0,    2649600,    2649600,     1152,     2304, 0xd6e588dd
0,    2676096,    2676096,     1152,     2304, 0xe04f7f54
0,    2702592,    2702592,     1152,     2304, 0x300f82c6
0,    2729088,    2729088,     1152,     2304, 0x66557b0a
0,    2755584,    2755584,     1152,     2304, 0x57db7c56
0,    2782080,    2782080,     1152,     2304, 0xa47b859b
0,    2808576,    2808576,     1152,     2304, 0x9d2479b4
0,    2835072,    2835072,     1152,     2304, 0xbaa9795c
0,    2861568,    2861568,     1152,     2304, 0x63947ce8
0,    2888064,    2888064,     1152,     2304, 0xd4a87782
0,    2914560,    2914560,     1152,     2304, 0x12b48442
0,    2941056,    2941056,     1152,     2304, 0xd7128050
0,    2967552,    2967552,     1152,     2304, 0x972e8119
0,    2994048,    2994048,     1152,     2304, 0x32478134
0,    3020544,    3020544,     1152,     2304, 0xe8dc7457
0,    3047040,    3047040,     1152,     2304, 0x77397739
0,    3073536,    3073536,     1152,     2304, 0x86257fc0
0,    3100032,    3100032,     1152,     2304, 0xe5167417
0,    3126528,    3126528,     1152,     2304, 0x8ca97f1f
0,    3153024,    3153024,     1152,     2304, 0xf6c2732a
0,    3179520,    3179520,     1152,     2304, 0xdbdc7f27
0,    3206016,    3206016,     1152,     2304, 0x696578e8
0,    3232512,    3232512,     1152,     2304, 0xbc9f8312
0,    3259008,    3259008,     1152,     2304, 0xc22f7023
0,    3285504,    3285504,     1152,     2304, 0x546a83e2
0,    3312000,    3312000,     1152,     2304, 0xe61386e9
0,    3338496,    3338496,     1152,     2304, 0x10e87338
0,    3364992,    3364992,     1152,     2304, 0x8203734f
0,    3391488,    3391488,     1152,     2304, 0x2e9e7719
0,    3417984,    3417984,     1152,     2304, 0xb1978b13
0,    3444480,    3444480,     1152,     2304, 0x7e777838
0,    3470976,    3470976,     1152,     2304, 0xa2cc7687
0,    3497472,    3497472,     1152,     2304, 0x03db659f
0,    3523968,    3523968,     1152,     2304, 0xba957bab
0,    3550464,    3550464,     1152,     2304, 0x0b78847d
0,    3576960,    3576960,     1152,     2304, 0x0cdc8408
0,    3603456,    3603456,     1152,     2304, 0x60e18ab3
0,    3629952,    3629952,     1152,     2304, 0x8dab7279
0,    3656448,    3656448,     1152,     2304, 0xa08e82de
0,    3682944,    3682944,     1152,     2304, 0x47c0835d
0,    3709440,    3709440,     1152,     2304, 0x002d88bb
0,    3735936,    3735936,     1152,     2304, 0xa90e6105
0,    3762432,    3762432,     1152,     2304, 0x37a586eb
0,    3788928,    3788928,     1152,     2304, 0x114b6b10
0,    3815424,    3815424,     1152,     2304, 0xa6368381
0,    3841920,    3841920,     1152,     2304, 0x4ae9754a
0,    3868416,    3868416,     1152,     2304, 0x970970f9
0,    3894912,    3894912,     1152,     2304, 0xd5918694
0,    3921408,    3921408,     1152,     2304, 0x140b7a1c
0,    3947904,    3947904,     1152,     2304, 0xef1a7e31
0,    3974400,    3974400,     1152,     2304, 0x054e7bdf
0,    4000896,    4000896,     1152,     2304, 0x285c709e
0,    4027392,    4027392,     1152,     2304, 0x7e7e7104
0,    4053888,    4053888,     1152,     2304, 0xe7d86eeb
0,    4080384,    4080384,     1152,     2304, 0x21af7a6e
0,    4106880,    4106880,     1152,     2304, 0x121b7924
0,    4133376,    4133376,     1152,     2304, 0x9f248195
0,    4159872,    4159872,     1152,     2304, 0x68c69136
0,    4186368,    4186368,     1152,     2304, 0xb9f86bd9
0,    4212864,    4212864,     1152,     2304, 0xc41677be
0,    4239360,    4239360,     1152,     2304, 0x68dd729c
0,    4265856,    4265856,     1152,     2304, 0x2449790a
0,    4292352,    4292352,     1152,     2304, 0x22298b9f
0,    4318848,    4318848,     1152,     2304, 0xe1588b53
0,    4345344,    4345344,     1152,     2304, 0x61d49144
0,    4371840,    4371840,     1152,     2304, 0x2fb07bc7
0,    4398336,    4398336,     1152,     2304, 0xaf877e63
0,    4424832,    4424832,     1152,     2304, 0x3c068808
0,    4451328,    4451328,     1152,     2304, 0x378376c3
0,    4477824,    4477824,     1152,     2304, 0xac926a09
0,    4504320,    4504320,     1152,     2304, 0x201d6a24
0,    4530816,    4530816,     1152,     2304, 0xdefa814e
0,    4557312,    4557312,     1152,     2304, 0x7f0f7039
0,    4583808,    4583808,     1152,     2304, 0x53c3770b
0,    4610304,    4610304,     1152,     2304, 0xd99383a5
0,    4636800,    4636800,     1152,     2304, 0xf2567e9a
0,    4663296,    4663296,     1152,     2304, 0xdb566c79
0,    4689792,    4689792,     1152,     2304, 0x438e7caa
0,    4716288,    4716288,     1152,     2304, 0xd8b17f86
0,    4742784,    4742784,     1152,     2304, 0x6592731d
0,    4769280,    4769280,     1152,     2304, 0x48fc7417
0,    4795776,    4795776,     1152,     2304, 0x10ff782c
0,    4822272,    4822272,     1152,     2304, 0x56fb7213
0,    4848768,    4848768,     1152,     2304, 0xfa168332
0,    4875264,    4875264,     1152,     2304, 0x05436ee5
0,    4901760,    4901760,     1152,     2304, 0x36667ae6
0,    4928256,    4928256,     1152,     2304, 0x450677da
0,    4954752,    4954752,     1152,     2304, 0x304f7c7e
0,    4981248,    4981248,     1152,     2304, 0xd75574a1
0,    5007744,    5007744,     1152,     2304, 0xc1c7799c
0,    5034240,    5034240,     1152,     2304, 0x23027df1
0,    5060736,    5060736,     1152,     2304, 0xeddd7b86
0,    5087232,    5087232,     1152,     2304, 0x695973ff
0,    5113728,    5113728,     1152,     2304, 0x99de7f10
0,    5140224,    5140224,     1152,     2304, 0xb7037df1
0,    5166720,    5166720,     1152,     2304, 0x2be97438
0,    5193216,    5193216,     1152,     2304, 0x4c7a82fd
0,    5219712,    5219712,     1152,     2304, 0x83db71f8
0,    5246208,    5246208,     1152,     2304, 0xe9e57ce7
0,    5272704,    5272704,     1152,     2304, 0xb1b9896d
0,    5299200,    5299200,     1152,     2304, 0x557e7209
0,    5325696,    5325696,     1152,     2304, 0x5d267b35
0,    5352192,    5352192,     1152,     2304, 0x3056810f
0,    5378688,    5378688,     1152,     2304, 0xf52c76b1
0,    5405184,    5405184,     1152,     2304, 0x4cd47fea
0,    5431680,    5431680,     1152,     2304, 0x6ce073c8
0,    5458176,    5458176,     1152,     2304, 0x19ad6cc5
0,    5484672,    5484672,     1152,     2304, 0x0c207ae2
0,    5511168,    5511168,     1152,     2304, 0x5f05672c
0,    5537664,    5537664,     1152,     2304, 0x0da279a5
0,    5564160,    5564160,     1152,     2304, 0xae877f1d
0,    5590656,    5590656,     1152,     2304, 0x8ae5740b
0,    5617152,    5617152,     1152,     2304, 0xca217487
0,    5643648,    5643648,     1152,     2304, 0xf1dc83a8
0,    5670144,    5670144,     1152,     2304, 0x994a701d
0,    5696640,    5696640,     1152,     2304, 0x554b89c6
0,    5723136,    5723136,     1152,     2304, 0xf7d89361
0,    5749632,    5749632,     1152,     2304, 0xb95a6763
0,    5776128,    5776128,     1152,     2304, 0xf5ab8172
0,    5802624,    5802624,     1152,     2304, 0x33a98514
0,    5829120,    5829120,     1152,     2304, 0xf6c972ee
0,    5855616,    5855616,     1152,     2304, 0x78a37a47
0,    5882112,    5882112,     1152,     2304, 0x4db6700e
0,    5908608,    5908608,     1152,     2304, 0x2ac47adb
0,    5935104,    5935104,     1152,     2304, 0xdddb81cd
0,    5961600,    5961600,     1152,     2304, 0x31eb7513
0,    5988096,    5988096,     1152,     2304, 0xad427d81
0,    6014592,    6014592,     1152,     2304, 0xa3d187f1
0,    6041088,    6041088,     1152,     2304, 0xe60f7b3d
0,    6067584,    6067584,     1152,     2304, 0xfa1a93dc
0,    6094080,    6094080,     1152,     2304, 0x8ae17c9b
0,    6120576,    6120576,     1152,     2304, 0xc3076d94
0,    6147072,    6147072,     1152,     2304, 0x8725748c
0,    6173568,    6173568,     1152,     2304, 0xd578916a
0,    6200064,    6200064,     1152,     2304, 0x05d97968
0,    6226560,    6226560,     1152,     2304, 0x0f4d8a3d
0,    6253056,    6253056,     1152,     2304, 0xf52b7e84
0,    6279552,    6279552,     1152,     2304, 0x449b75ac
0,    6306048,    6306048,     1152,     2304, 0x948b7192
0,    6332544,    6332544,     1152,     2304, 0xf75c8a1b
0,    6359040,    6359040,     1152,     2304, 0x1990709a
0,    6385536,    6385536,     1152,     2304, 0xa4567f39
0,    6412032,    6412032,     1152,     2304, 0x0e7a7d7e
0,    6438528,    6438528,     1152,     2304, 0x2c2a7815
0,    6465024,    6465024,     1152,     2304, 0xcbc77b94
0,    6491520,    6491520,     1152,     2304, 0x4e6b744f
0,    6518016,    6518016,     1152,     2304, 0xb1d56b8b
0,    6544512,    6544512,     1152,     2304, 0x5cf978cf
0,    6571008,    6571008,     1152,     2304, 0x86928607
0,    6597504,    6597504,     1152,     2304, 0xa65583cb
0,    6624000,    6624000,     1152,     2304, 0xd9157e2f
0,    6650496,    6650496,     1152,     2304, 0x57227bec
0,    6676992,    6676992,     1152,     2304, 0x7602662b
0,    6703488,    6703488,     1152,     2304, 0x52d58afa
0,    6729984,    6729984,     1152,     2304, 0x46908330
0,    6756480,    6756480,     1152,     2304, 0xbdaf74de
0,    6782976,    6782976,     1152,     2304, 0xb84379cc
0,    6809472,    6809472,     1152,     2304, 0xe4f77def
0,    6835968,    6835968,     1152,     2304, 0x0f246d1b
0,    6862464,    6862464,     1152,     2304, 0x6fe67f20
0,    6888960,    6888960,     1152,     2304, 0x053581db
0,    6915456,    6915456,     1152,     2304, 0xce8c85c2
0,    6941952,    6941952,     1152,     2304, 0x695c76a4
0,    6968448,    6968448,     1152,     2304, 0x5a0e7401
0,    6994944,    6994944,     1152,     2304, 0x1f2e7bfc
0,    7021440,    7021440,     1152,     2304, 0xb0ba77a4
0,    7047936,    7047936,     1152,     2304, 0xd1618779
0,    7074432,    7074432,     1152,     2304, 0x9a747063
0,    7100928,    7100928,     1152,     2304, 0x4ba87b11
0,    7127424,    7127424,     1152,     2304, 0x24406e24
0,    7153920,    7153920,     1152,     2304, 0xf87e8109
0,    7180416,    7180416,     1152,     2304, 0x99e46c84
0,    7206912,    7206912,     1152,     2304, 0x557e76d9
0,    7233408,    7233408,     1152,     2304, 0x83797bd2
0,    7259904,    7259904,     1152,     2304, 0x28027d8a
0,    7286400,    7286400,     1152,     2304, 0x3c2085c3
0,    7312896,    7312896,     1152,     2304, 0x25a17acd
0,    7339392,    7339392,     1152,     2304, 0xbb5168f6
0,    7365888,    7365888,     1152,     2304, 0xb05383cd
0,    7392384,    7392384,     1152,     2304, 0xcdfc9129
0,    7418880,    7418880,     1152,     2304, 0xc75678b7
0,    7445376,    7445376,     1152,     2304, 0x28657dc7
0,    7471872,    7471872,     1152,     2304, 0x35f677c6
0,    7498368,    7498368,     1152,     2304, 0x92f76aa3
0,    7524864,    7524864,     1152,     2304, 0x61917480
0,    7551360,    7551360,     1152,     2304, 0xcf1c7e16
0,    7577856,    7577856,     1152,     2304, 0x52df807c
0,    7604352,    7604352,     1152,     2304, 0xa19a8b80
0,    7630848,    7630848,     1152,     2304, 0x65da8646
0,    7657344,    7657344,     1152,     2304, 0x146a8766
0,    7683840,    7683840,     1152,     2304, 0x27cc8a87
0,    7710336,    7710336,     1152,     2304, 0x112a676e
0,    7736832,    7736832,     1152,     2304, 0x13ea6fbe
0,    7763328,    7763328,     1152,     2304, 0x75287215
0,    7789824,    7789824,     1152,     2304, 0xa7ee833d
0,    7816320,    7816320,     1152,     2304, 0x32fb78f8
0,    7842816,    7842816,     1152,     2304, 0x8ebf778a
0,    7869312,    7869312,     1152,     2304, 0x71e58b64
0,    7895808,    7895808,     1152,     2304, 0x26b379d6
0,    7922304,    7922304,     1152,     2304, 0x3d2f763d
0,    7948800,    7948800,     1152,     2304, 0x04de85e5
0,    7975296,    7975296,     1152,     2304, 0x90a87f59
0,    8001792,    8001792,     1152,     2304, 0x4ba48045
0,    8028288,    8028288,     1152,     2304, 0x36fa871a
0,    8054784,    8054784,     1152,     2304, 0x937a758f
0,    8081280,    8081280,     1152,     2304, 0x713c6d8a
0,    8107776,    8107776,     1152,     2304, 0xaa0a7121
0,    8134272,    8134272,     1152,     2304, 0x7fc66e09
0,    8160768,    8160768,     1152,     2304, 0x00cf7b3b
0,    8187264,    8187264,     1152,     2304, 0x01d58e68
0,    8213760,    8213760,     1152,     2304, 0x4ba68102
0,    8240256,    8240256,     1152,     2304, 0x43a07b7d
0,    8266752,    8266752,     1152,     2304, 0x3faf7659
0,    8293248,    8293248,     1152,     2304, 0xbd1186e5
0,    8319744,    8319744,     1152,     2304, 0xea8a7ed8
0,    8346240,    8346240,     1152,     2304, 0x770d71f3
0,    8372736,    8372736,     1152,     2304, 0x4a7d703d
0,    8399232,    8399232,     1152,     2304, 0x99347b58
0,    8425728,    8425728,     1152,     2304, 0xd5e5771a
0,    8452224,    8452224,     1152,     2304, 0x8d926109
0,    8478720,    8478720,     1152,     2304, 0xd1d78832
0,    8505216,    8505216,     1152,     2304, 0x77c87fec
0,    8531712,    8531712,     1152,     2304, 0xcc137f8c
0,    8558208,    8558208,     1152,     2304, 0xdfbe8218
0,    8584704,    8584704,     1152,     2304, 0x0a7c7d1c
0,    8611200,    8611200,     1152,     2304, 0x90458549
0,    8637696,    8637696,     1152,     2304, 0xbe527a24
0,    8664192,    8664192,     1152,     2304, 0x61c8804b
0,    8690688,    8690688,     1152,     2304, 0x340181f1
0,    8717184,    8717184,     1152,     2304, 0x85577b6c
0,    8743680,    8743680,     1152,     2304, 0x50e67068
0,    8770176,    8770176,     1152,     2304, 0x59bb807d
0,    8796672,    8796672,     1152,     2304, 0x1fd277f8
0,    8823168,    8823168,     1152,     2304, 0x3c187aa9
0,    8849664,    8849664,     1152,     2304, 0xa54b8632
0,    8876160,    8876160,     1152,     2304, 0x2c8d7422
0,    8902656,    8902656,     1152,     2304, 0x6f0d8e04
0,    8929152,    8929152,     1152,     2304, 0x793171a0
0,    8955648,    8955648,     1152,     2304, 0x67527952
0,    8982144,    8982144,     1152,     2304, 0xe51681d3
0,    9008640,    9008640,     1152,     2304, 0x6da3827b
0,    9035136,    9035136,     1152,     2304, 0xfe416f2a
0,    9061632,    9061632,     1152,     2304, 0x24de7df6
0,    9088128,    9088128,     1152,     2304, 0xf0e97bbb
0,    9114624,    9114624,     1152,     2304, 0x49fe7d2c
0,    9141120,    9141120,     1152,     2304, 0xebad8e8a
0,    9167616,    9167616,     1152,     2304, 0xa5747739
0,    9194112,    9194112,     1152,     2304, 0x521b77f2
0,    9220608,    9220608,     1152,     2304, 0xc6217384
0,    9247104,    9247104,     1152,     2304, 0xc0a98626
0,    9273600,    9273600,     1152,     2304, 0xff797797
0,    9300096,    9300096,     1152,     2304, 0x65135e3f
0,    9326592,    9326592,     1152,     2304, 0xd08c8d7b
0,    9353088,    9353088,     1152,     2304, 0x1be28849
0,    9379584,    9379584,     1152,     2304, 0x1b037ffb
0,    9406080,    9406080,     1152,     2304, 0x3f6a86af
0,    9432576,    9432576,     1152,     2304, 0x031b796f
0,    9459072,    9459072,     1152,     2304, 0xb0bd6ccc
0,    9485568,    9485568,     1152,     2304, 0x19ed870d
0,    9512064,    9512064,     1152,     2304, 0xb5b37995
0,    9538560,    9538560,     1152,     2304, 0xffe592d9
0,    9565056,    9565056,     1152,     2304, 0x396f7fc9
0,    9591552,    9591552,     1152,     2304, 0xfe2b759d
0,    9618048,    9618048,     1152,     2304, 0x07426ea4
0,    9644544,    9644544,     1152,     2304, 0x823e7961
0,    9671040,    9671040,     1152,     2304, 0x2fc57155
0,    9697536,    9697536,     1152,     2304, 0xeb0e7dcf
0,    9724032,    9724032,     1152,     2304, 0xaddf80ce
0,    9750528,    9750528,     1152,     2304, 0xafda8198
0,    9777024,    9777024,     1152,     2304, 0x7c168420
0,    9803520,    9803520,     1152,     2304, 0xb5427f1a
0,    9830016,    9830016,     1152,     2304, 0x51247474
0,    9856512,    9856512,     1152,     2304, 0xc19f813c
0,    9883008,    9883008,     1152,     2304, 0xf0d37102
0,    9909504,    9909504,     1152,     2304, 0x97bf6864
0,    9936000,    9936000,     1152,     2304, 0xc1a38857
0,    9962496,    9962496,     1152,     2304, 0x32ee708e
0,    9988992,    9988992,     1152,     2304, 0x0fe98e07
0,   10015488,   10015488,     1152,     2304, 0xb1c7784b
0,   10041984,   10041984,     1152,     2304, 0x154a798d
0,   10068480,   10068480,     1152,     2304, 0x835d9146
0,   10094976,   10094976,     1152,     2304, 0x6f0b7ef1
0,   10121472,   10121472,     1152,     2304, 0xd25279b1
0,   10147968,   10147968,     1152,     2304, 0x17207bd7
0,   10174464,   10174464,     1152,     2304, 0x2ae57d06
0,   10200960,   10200960,     1152,     2304, 0x47297594
0,   10227456,   10227456,     1152,     2304, 0x13ba752e
0,   10253952,   10253952,     1152,     2304, 0xa3ee7538
0,   10280448,   10280448,     1152,     2304, 0x5398779a
0,   10306944,   10306944,     1152,     2304, 0xe1598a2e
0,   10333440,   10333440,     1152,     2304, 0xe447670d
0,   10359936,   10359936,     1152,     2304, 0x913a80a7
0,   10386432,   10386432,     1152,     2304, 0xc40a8260
0,   10412928,   10412928,     1152,     2304, 0x23428787
0,   10439424,   10439424,     1152,     2304, 0xbc1166be
0,   10465920,   10465920,     1152,     2304, 0x0284728b
0,   10492416,   10492416,     1152,     2304, 0x07bb7c49
0,   10518912,   10518912,     1152,     2304, 0x23e881de
0,   10545408,   10545408,     1152,     2304, 0xf4c86e6e
0,   10571904,   10571904,     1152,     2304, 0x1d1c8c56
0,   10598400,   10598400,     1152,     2304, 0x35d08122
0,   10624896,   10624896,     1152,     2304, 0xfb717618
0,   10651392,   10651392,     1152,     2304, 0x400a8296
0,   10677888,   10677888,     1152,     2304, 0x7bb67e46
0,   10704384,   10704384,     1152,     2304, 0xa0a7835d
0,   10730880,   10730880,     1152,     2304, 0xf6017e6b
0,   10757376,   10757376,     1152,     2304, 0x01ee7989
0,   10783872,   10783872,     1152,     2304, 0x2df98343
0,   10810368,   10810368,     1152,     2304, 0x901472aa
0,   10836864,   10836864,     1152,     2304, 0x01008258
0,   10863360,   10863360,     1152,     2304, 0x95137801
0,   10889856,   10889856,     1152,     2304, 0x5ec37d38
0,   10916352,   10916352,     1152,     2304, 0x0e8a69ab
0,   10942848,   10942848,     1152,     2304, 0x8eb36e56
0,   10969344,   10969344,     1152,     2304, 0xfd587a8b
0,   10995840,   10995840,     1152,     2304, 0x80807f90
0,   11022336,   11022336,     1152,     2304, 0x8c49776a
0,   11048832,   11048832,     1152,     2304, 0x85e57cc3
0,   11075328,   11075328,     1152,     2304, 0xecbc82be
0,   11101824,   11101824,     1152,     2304, 0xea5e789f
0,   11128320,   11128320,     1152,     2304, 0x9bc185dd
0,   11154816,   11154816,     1152,     2304, 0xd79377e8
0,   11181312,   11181312,     1152,     2304, 0xf23577a4
0,   11207808,   11207808,     1152,     2304, 0x0bf49571
0,   11234304,   11234304,     1152,     2304, 0x808a826d
0,   11260800,   11260800,     1152,     2304, 0x68e36f17
0,   11287296,   11287296,     1152,     2304, 0xc0d581e9
0,   11313792,   11313792,     1152,     2304, 0xa4837066
0,   11340288,   11340288,     1152,     2304, 0xfb257bbf
0,   11366784,   11366784,     1152,     2304, 0x04de862c
0,   11393280,   11393280,     1152,     2304, 0x11438250
0,   11419776,   11419776,     1152,     2304, 0x690b6d16
0,   11446272,   11446272,     1152,     2304, 0xdd9f8397
0,   11472768,   11472768,     1152,     2304, 0xd4b88822
0,   11499264,   11499264,     1152,     2304, 0x5dcd9862
0,   11525760,   11525760,     1152,     2304, 0xca367a99
0,   11552256,   11552256,     1152,     2304, 0xab4887e1
0,   11578752,   11578752,     1152,     2304, 0x5cbb8597
0,   11605248,   11605248,     1152,     2304, 0xe6ef7a34
0,   11631744,   11631744,     1152,     2304, 0x3fb68bc2
0,   11658240,   11658240,     1152,     2304, 0x46e1750d
0,   11684736,   11684736,     1152,     2304, 0x4f3970ca
0,   11711232,   11711232,     1152,     2304, 0x29f68489
0,   11737728,   11737728,     1152,     2304, 0x43fc763f
0,   11764224,   11764224,     1152,     2304, 0x92b37444
0,   11790720,   11790720,     1152,     2304, 0x16226eb1
0,   11817216,   11817216,     1152,     2304, 0x69f385d8
0,   11843712,   11843712,     1152,     2304, 0x7b926586
0,   11870208,   11870208,     1152,     2304, 0xa51f7e05
0,   11896704,   11896704,     1152,     2304, 0xc4f77b00
0,   11923200,   11923200,     1152,     2304, 0xb9ad8c17
0,   11949696,   11949696,     1152,     2304, 0xce0580b4
0,   11976192,   11976192,     1152,     2304, 0x491286e3
0,   12002688,   12002688,     1152,     2304, 0x6fee7ca6
0,   12029184,   12029184,     1152,     2304, 0x2554695c
0,   12055680,   12055680,     1152,     2304, 0xd07c88bc
0,   12082176,   12082176,     1152,     2304, 0x2ad289a3
0,   12108672,   12108672,     1152,     2304, 0x33dc7c98
0,   12135168,   12135168,     1152,     2304, 0xa9516ca9
0,   12161664,   12161664,     1152,     2304, 0x84e8737e
0,   12188160,   12188160,     1152,     2304, 0xeb5c76dc
0,   12214656,   12214656,     1152,     2304, 0xbec47d3c
0,   12241152,   12241152,     1152,     2304, 0x3d477a5f
0,   12267648,   12267648,     1152,     2304, 0x6087793d
0,   12294144,   12294144,     1152,     2304, 0xfda56f26
0,   12320640,   12320640,     1152,     2304, 0x675a8543
0,   12347136,   12347136,     1152,     2304, 0x19927eae
0,   12373632,   12373632,     1152,     2304, 0xcf687e63
0,   12400128,   12400128,     1152,     2304, 0xf4e29490
0,   12426624,   12426624,     1152,     2304, 0x68f06e46
0,   12453120,   12453120,     1152,     2304, 0x6c738434
0,   12479616,   12479616,     1152,     2304, 0xd1337fd3
0,   12506112,   12506112,     1152,     2304, 0xf12078b2
0,   12532608,   12532608,     1152,     2304, 0x33e66fbb
0,   12559104,   12559104,     1152,     2304, 0x76eb7b56
0,   12585600,   12585600,     1152,     2304, 0x97f27f46
0,   12612096,   12612096,     1152,     2304, 0xcab88562
0,   12638592,   12638592,     1152,     2304, 0x360d8287
0,   12665088,   12665088,     1152,     2304, 0xdcfe80e8
0,   12691584,   12691584,     1152,     2304, 0x27cd95b1
0,   12718080,   12718080,     1152,     2304, 0xf88473ab
0,   12744576,   12744576,     1152,     2304, 0x152b7fed
0,   12771072,   12771072,     1152,     2304, 0x82cf7d1a
0,   12797568,   12797568,     1152,     2304, 0xc40070be
0,   12824064,   12824064,     1152,     2304, 0x711d7112
0,   12850560,   12850560,     1152,     2304, 0x80466ff7
0,   12877056,   12877056,     1152,     2304, 0x573972ce
0,   12903552,   12903552,     1152,     2304, 0x3da07722
0,   12930048,   12930048,     1152,     2304, 0xa1c683b7
0,   12956544,   12956544,     1152,     2304, 0x5d11688f
0,   12983040,   12983040,     1152,     2304, 0x327e7af2
0,   13009536,   13009536,     1152,     2304, 0x92fe8d54
0,   13036032,   13036032,     1152,     2304, 0xb3f174d9
0,   13062528,   13062528,     1152,     2304, 0x558e7402
0,   13089024,   13089024,     1152,     2304, 0x8d5a7a06
0,   13115520,   13115520,     1152,     2304, 0x26967fb1
0,   13142016,   13142016,     1152,     2304, 0xcbc48c82
0,   13168512,   13168512,     1152,     2304, 0xa2498372
0,   13195008,   13195008,     1152,     2304, 0x10008189
0,   13221504,   13221504,     1152,     2304, 0xdce57d24
0,   13248000,   13248000,     1152,     2304, 0x537c6974
0,   13274496,   13274496,     1152,     2304, 0xfe257e9b
0,   13300992,   13300992,     1152,     2304, 0x01f47f18
0,   13327488,   13327488,     1152,     2304, 0x49597ef4
0,   13353984,   13353984,     1152,     2304, 0xd060749b
0,   13380480,   13380480,     1152,     2304, 0x1c0a8312
0,   13406976,   13406976,     1152,     2304, 0x075e7901
0,   13433472,   13433472,     1152,     2304, 0xcaa176f2
0,   13459968,   13459968,     1152,     2304, 0x33c18ccf
0,   13486464,   13486464,     1152,     2304, 0x3b4f73e2
0,   13512960,   13512960,     1152,     2304, 0x002c63fc
0,   13539456,   13539456,     1152,     2304, 0xed0c8648
0,   13565952,   13565952,     1152,     2304, 0x29727ca1
0,   13592448,   13592448,     1152,     2304, 0x00a47666
0,   13618944,   13618944,     1152,     2304, 0x837d8c93
0,   13645440,   13645440,     1152,     2304, 0x5ff176a8
0,   13671936,   13671936,     1152,     2304, 0xf80e6c7a
0,   13698432,   13698432,     1152,     2304, 0x29757e69
0,   13724928,   13724928,     1152,     2304, 0xf36780c7
0,   13751424,   13751424,     1152,     2304, 0xca178398
0,   13777920,   13777920,     1152,     2304, 0x4cf37cfe
0,   13804416,   13804416,     1152,     2304, 0xb7d27f81
0,   13830912,   13830912,     1152,     2304, 0x07817975
0,   13857408,   13857408,     1152,     2304, 0x5bb377d0
0,   13883904,   13883904,     1152,     2304, 0x396b87ce
0,   13910400,   13910400,     1152,     2304, 0x994c6314
0,   13936896,   13936896,     1152,     2304, 0x94707d90
0,   13963392,   13963392,     1152,     2304, 0x9af07fe7
0,   13989888,   13989888,     1152,     2304, 0xa7977bf5
0,   14016384,   14016384,     1152,     2304, 0x92d36061
0,   14042880,   14042880,     1152,     2304, 0xb8129272
0,   14069376,   14069376,     1152,     2304, 0x89e975ba
0,   14095872,   14095872,     1152,     2304, 0xbebc7e2d
0,   14122368,   14122368,     1152,     2304, 0x5a85712d
0,   14148864,   14148864,     1152,     2304, 0x3f0879ca
0,   14175360,   14175360,     1152,     2304, 0xc2527f97
0,   14201856,   14201856,     1152,     2304, 0xa06e7b10
0,   14228352,   14228352,     1152,     2304, 0xdd0f6bd6
0,   14254848,   14254848,     1152,     2304, 0xbe8f7fe4
0,   14281344,   14281344,     1152,     2304, 0x70837b21
0,   14307840,   14307840,     1152,     2304, 0x11547f2d
0,   14334336,   14334336,     1152,     2304, 0xb5fb6ea8
0,   14360832,   14360832,     1152,     2304, 0x05478786
0,   14387328,   14387328,     1152,     2304, 0x25b76ab7
0,   14413824,   14413824,     1152,     2304, 0x89ed9395
0,   14440320,   14440320,     1152,     2304, 0x70677466
0,   14466816,   14466816,     1152,     2304, 0xbb76732c
0,   14493312,   14493312,     1152,     2304, 0x50ef82f3
0,   14519808,   14519808,     1152,     2304, 0x9f8f7049
0,   14546304,   14546304,     1152,     2304, 0xdb298ad2
0,   14572800,   14572800,     1152,     2304, 0x2f4171b6
0,   14599296,   14599296,     1152,     2304, 0xcb8f8a5c
0,   14625792,   14625792,     1152,     2304, 0xa2116fcc
0,   14652288,   14652288,     1152,     2304, 0x3dde760f
0,   14678784,   14678784,     1152,     2304, 0xb2f78096
0,   14705280,   14705280,     1152,     2304, 0xf029837f
0,   14731776,   14731776,     1152,     2304, 0xe1157da6
0,   14758272,   14758272,     1152,     2304, 0x20d374c1
0,   14784768,   14784768,     1152,     2304, 0x889d60fb
0,   14811264,   14811264,     1152,     2304, 0x98a289a2
0,   14837760,   14837760,     1152,     2304, 0xf31c775c
0,   14864256,   14864256,     1152,     2304, 0x42207926
0,   14890752,   14890752,     1152,     2304, 0xc396721e
0,   14917248,   14917248,     1152,     2304, 0x20376de4
0,   14943744,   14943744,     1152,     2304, 0xac877b56
0,   14970240,   14970240,     1152,     2304, 0x87b489e2
0,   14996736,   14996736,     1152,     2304, 0x8dbc6f23
0,   15023232,   15023232,     1152,     2304, 0x5276884c
0,   15049728,   15049728,     1152,     2304, 0xc1116b5a
0,   15076224,   15076224,     1152,     2304, 0x3b027d14
0,   15102720,   15102720,     1152,     2304, 0x56ff799e
0,   15129216,   15129216,     1152,     2304, 0xbc747a24
0,   15155712,   15155712,     1152,     2304, 0xcc6e82d9
0,   15182208,   15182208,     1152,     2304, 0x49e27021
0,   15208704,   15208704,     1152,     2304, 0x0a1b70dd
0,   15235200,   15235200,     1152,     2304, 0x794270fa
0,   15261696,   15261696,     1152,     2304, 0xc1a87b00
0,   15288192,   15288192,     1152,     2304, 0x1d4e92a0
0,   15314688,   15314688,     1152,     2304, 0x908083cf
0,   15341184,   15341184,     1152,     2304, 0x43046b54
0,   15367680,   15367680,     1152,     2304, 0xdd7b7b0d
0,   15394176,   15394176,     1152,     2304, 0x47317403
0,   15420672,   15420672,     1152,     2304, 0x25646adf
0,   15447168,   15447168,     1152,     2304, 0xf0118728
0,   15473664,   15473664,     1152,     2304, 0xb0856e5e
0,   15500160,   15500160,     1152,     2304, 0xda4d81f8
0,   15526656,   15526656,     1152,     2304, 0xc2f17123
0,   15553152,   15553152,     1152,     2304, 0x31d37b9d
0,   15579648,   15579648,     1152,     2304, 0xf0f18f54
0,   15606144,   15606144,     1152,     2304, 0xed166f78
0,   15632640,   15632640,     1152,     2304, 0x2f646f42
0,   15659136,   15659136,     1152,     2304, 0x89dd81f3
0,   15685632,   15685632,     1152,     2304, 0x0fe97930
0,   15712128,   15712128,     1152,     2304, 0x8623738c
0,   15738624,   15738624,     1152,     2304, 0xd666626b
0,   15765120,   15765120,     1152,     2304, 0x04cc7d55
0,   15791616,   15791616,     1152,     2304, 0x79387a34
0,   15818112,   15818112,     1152,     2304, 0x8da06960
0,   15844608,   15844608,     1152,     2304, 0xb7df67fc
0,   15871104,   15871104,     1152,     2304, 0x985280a4
0,   15897600,   15897600,     1152,     2304, 0x7207851c
0,   15924096,   15924096,     1152,     2304, 0xb9bf8bb5
0,   15950592,   15950592,     1152,     2304, 0x0c3e6f61
0,   15977088,   15977088,     1152,     2304, 0x981c83cd
0,   16003584,   16003584,     1152,     2304, 0x4c7d7a5a
0,   16030080,   16030080,     1152,     2304, 0xc9ee8560
0,   16056576,   16056576,     1152,     2304, 0x81708429
0,   16083072,   16083072,     1152,     2304, 0x79e27d47
0,   16109568,   16109568,     1152,     2304, 0x8b2d7773
0,   16136064,   16136064,     1152,     2304, 0x4c4d7a1a
0,   16162560,   16162560,     1152,     2304, 0x65f87177
0,   16189056,   16189056,     1152,     2304, 0xc5e079ea
0,   16215552,   16215552,     1152,     2304, 0xc8c377b1
0,   16242048,   16242048,     1152,     2304, 0xaf3c7d19
0,   16268544,   16268544,     1152,     2304, 0x169f86c7
0,   16295040,   16295040,     1152,     2304, 0x777b7246
0,   16321536,   16321536,     1152,     2304, 0xd2997449
0,   16348032,   16348032,     1152,     2304, 0x93668026
0,   16374528,   16374528,     1152,     2304, 0x021e805b
0,   16401024,   16401024,     1152,     2304, 0x7920836e
0,   16427520,   16427520,     1152,     2304, 0xdca97d9e
0,   16454016,   16454016,     1152,     2304, 0x5cda849e
0,   16480512,   16480512,     1152,     2304, 0xcd756f22
0,   16507008,   16507008,     1152,     2304, 0xeb238db2
0,   16533504,   16533504,     1152,     2304, 0xbed37540
0,   16560000,   16560000,     1152,     2304, 0xd37e8379
0,   16586496,   16586496,     1152,     2304, 0xf6556e85
0,   16612992,   16612992,     1152,     2304, 0xf53470aa
0,   16639488,   16639488,     1152,     2304, 0x67bb72a6
0,   16665984,   16665984,     1152,     2304, 0x99f376ab
0,   16692480,   16692480,     1152,     2304, 0xbc5a7475
0,   16718976,   16718976,     1152,     2304, 0x227376c5
0,   16745472,   16745472,     1152,     2304, 0xd50c7a1d
0,   16771968,   16771968,     1152,     2304, 0x576a846a
0,   16798464,   16798464,     1152,     2304, 0xf1ab7e5d
0,   16824960,   16824960,     1152,     2304, 0x9f0983d5
0,   16851456,   16851456,     1152,     2304, 0x27047051
0,   16877952,   16877952,     1152,     2304, 0xbf5479c2
0,   16904448,   16904448,     1152,     2304, 0x4c1466f6
0,   16930944,   16930944,     1152,     2304, 0x2b527ab9
0,   16957440,   16957440,     1152,     2304, 0xd98c7c6a
0,   16983936,   16983936,     1152,     2304, 0xf10c7c15
0,   17010432,   17010432,     1152,     2304, 0x657086c3
0,   17036928,   17036928,     1152,     2304, 0xb6fc6f76
0,   17063424,   17063424,     1152,     2304, 0xffbb6d86
0,   17089920,   17089920,     1152,     2304, 0xdd1f79a0
0,   17116416,   17116416,     1152,     2304, 0x2d2e8502
0,   17142912,   17142912,     1152,     2304, 0x4541800a
0,   17169408,   17169408,     1152,     2304, 0xde1f75d6
0,   17195904,   17195904,     1152,     2304, 0x77817e14
0,   17222400,   17222400,     1152,     2304, 0x3b3370a7
0,   17248896,   17248896,     1152,     2304, 0xea417b65
0,   17275392,   17275392,     1152,     2304, 0xce146d19
0,   17301888,   17301888,     1152,     2304, 0x9a1f7401
0,   17328384,   17328384,     1152,     2304, 0x5dfe83f2
0,   17354880,   17354880,     1152,     2304, 0x464564d6
0,   17381376,   17381376,     1152,     2304, 0x7c1668bc
0,   17407872,   17407872,     1152,     2304, 0x6b267787
0,   17434368,   17434368,     1152,     2304, 0x02c9770d
0,   17460864,   17460864,     1152,     2304, 0xa2c8774e
0,   17487360,   17487360,     1152,     2304, 0xc88087cd
0,   17513856,   17513856,     1152,     2304, 0xe1bf77ff
0,   17540352,   17540352,     1152,     2304, 0x1a7774c5
0,   17566848,   17566848,     1152,     2304, 0x211e7b28
0,   17593344,   17593344,     1152,     2304, 0xec617de7
0,   17619840,   17619840,     1152,     2304, 0xf8e37bb7
0,   17646336,   17646336,     1152,     2304, 0xf3b48a64
0,   17672832,   17672832,     1152,     2304, 0x50fb7d43
0,   17699328,   17699328,     1152,     2304, 0x4fed7e98
0,   17725824,   17725824,     1152,     2304, 0x75b97f25
0,   17752320,   17752320,     1152,     2304, 0xcbc17e41
0,   17778816,   17778816,     1152,     2304, 0x1c1b7e51
0,   17805312,   17805312,     1152,     2304, 0x29537f89
0,   17831808,   17831808,     1152,     2304, 0xa909865c
0,   17858304,   17858304,     1152,     2304, 0x870b71c4
0,   17884800,   17884800,     1152,     2304, 0x71f27d50
0,   17911296,   17911296,     1152,     2304, 0xed9c73a2
0,   17937792,   17937792,     1152,     2304, 0xcb947ee4
0,   17964288,   17964288,     1152,     2304, 0xb52b9075
0,   17990784,   17990784,     1152,     2304, 0x42996cf6
0,   18017280,   18017280,     1152,     2304, 0xd6d38a88
0,   18043776,   18043776,     1152,     2304, 0x3ead8262
0,   18070272,   18070272,     1152,     2304, 0x95717384
0,   18096768,   18096768,     1152,     2304, 0xf75e6eee
0,   18123264,   18123264,     1152,     2304, 0xfdb18312
0,   18149760,   18149760,     1152,     2304, 0x7f1370d8
0,   18176256,   18176256,     1152,     2304, 0xa0517c7d
0,   18202752,   18202752,     1152,     2304, 0x951e7ed6
0,   18229248,   18229248,     1152,     2304, 0x0bc86e8b
0,   18255744,   18255744,     1152,     2304, 0x24507f12
0,   18282240,   18282240,     1152,     2304, 0xce617841
0,   18308736,   18308736,     1152,     2304, 0xcd5f7dc8
0,   18335232,   18335232,     1152,     2304, 0x302f806e
0,   18361728,   18361728,     1152,     2304, 0x07039c11
0,   18388224,   18388224,     1152,     2304, 0xbaca716d
0,   18414720,   18414720,     1152,     2304, 0xf12a7de6
0,   18441216,   18441216,     1152,     2304, 0x9a009ab5
0,   18467712,   18467712,     1152,     2304, 0xf5d283ef
0,   18494208,   18494208,     1152,     2304, 0xea3f696b
0,   18520704,   18520704,     1152,     2304, 0x48777fcb
0,   18547200,   18547200,     1152,     2304, 0x3ed37b88
0,   18573696,   18573696,     1152,     2304, 0x1de6771f
0,   18600192,   18600192,     1152,     2304, 0x59e27fbb
0,   18626688,   18626688,     1152,     2304, 0x884987cf
0,   18653184,   18653184,     1152,     2304, 0x7c0e7786
0,   18679680,   18679680,     1152,     2304, 0xe9216da4
0,   18706176,   18706176,     1152,     2304, 0x4a9b77ba
0,   18732672,   18732672,     1152,     2304, 0x7c9b8e76
0,   18759168,   18759168,     1152,     2304, 0xf8c87d8f
0,   18785664,   18785664,     1152,     2304, 0xb2469152
0,   18812160,   18812160,     1152,     2304, 0x5e3e8194
0,   18838656,   18838656,     1152,     2304, 0x7be88e10
0,   18865152,   18865152,     1152,     2304, 0xe5328216
0,   18891648,   18891648,     1152,     2304, 0x0c4a7afe
0,   18918144,   18918144,     1152,     2304, 0xc3278338
0,   18944640,   18944640,     1152,     2304, 0xde4d8f21
0,   18971136,   18971136,     1152,     2304, 0xe0d76cb0
0,   18997632,   18997632,     1152,     2304, 0xd32b8298
0,   19024128,   19024128,     1152,     2304, 0x968671c6
0,   19050624,   19050624,     1152,     2304, 0xf2758187
0,   19077120,   19077120,     1152,     2304, 0x5f4a7cfd
0,   19103616,   19103616,     1152,     2304, 0x4a177e0f
0,   19130112,   19130112,     1152,     2304, 0x1eaa7b88
0,   19156608,   19156608,     1152,     2304, 0x709d8984
0,   19183104,   19183104,     1152,     2304, 0x331976bf
0,   19209600,   19209600,     1152,     2304, 0x5e807565
0,   19236096,   19236096,     1152,     2304, 0xfee2829c
0,   19262592,   19262592,     1152,     2304, 0xafaf7107
0,   19289088,   19289088,     1152,     2304, 0xcbc78106
0,   19315584,   19315584,     1152,     2304, 0x1cf6729c
0,   19342080,   19342080,     1152,     2304, 0xc87384e9
0,   19368576,   19368576,     1152,     2304, 0x11797a81
0,   19395072,   19395072,     1152,     2304, 0x83537747
0,   19421568,   19421568,     1152,     2304, 0x1cd46dc3
0,   19448064,   19448064,     1152,     2304, 0x2f527db8
0,   19474560,   19474560,     1152,     2304, 0x8afd70c8
0,   19501056,   19501056,     1152,     2304, 0x15e88b8d
0,   19527552,   19527552,     1152,     2304, 0x12c57d77
0,   19554048,   19554048,     1152,     2304, 0x40526d42
0,   19580544,   19580544,     1152,     2304, 0x338f8c9d
0,   19607040,   19607040,     1152,     2304, 0xc38e7519
0,   19633536,   19633536,     1152,     2304, 0x16de86c1
0,   19660032,   19660032,     1152,     2304, 0xef99828a
0,   19686528,   19686528,     1152,     2304, 0x6c69838b
0,   19713024,   19713024,     1152,     2304, 0x65106fba
0,   19739520,   19739520,     1152,     2304, 0xd4d17644
0,   19766016,   19766016,     1152,     2304, 0xf2b58310
0,   19792512,   19792512,     1152,     2304, 0xa4fd8098
0,   19819008,   19819008,     1152,     2304, 0xa5087eda
0,   19845504,   19845504,     1152,     2304, 0x48509498
0,   19872000,   19872000,     1152,     2304, 0x35227b90
0,   19898496,   19898496,     1152,     2304, 0x198a722c
0,   19924992,   19924992,     1152,     2304, 0x004c6a30
0,   19951488,   19951488,     1152,     2304, 0xdab480d9
0,   19977984,   19977984,     1152,     2304, 0x92ee804a
0,   20004480,   20004480,     1152,     2304, 0x17797b1e
0,   20030976,   20030976,     1152,     2304, 0xc65f772e
0,   20057472,   20057472,     1152,     2304, 0xef7d81d5
0,   20083968,   20083968,     1152,     2304, 0x97a782dd
0,   20110464,   20110464,     1152,     2304, 0x7658845f
0,   20136960,   20136960,     1152,     2304, 0x10169095
0,   20163456,   20163456,     1152,     2304, 0x7c76786c
0,   20189952,   20189952,     1152,     2304, 0x275f7733
0,   20216448,   20216448,     1152,     2304, 0x14776e91
0,   20242944,   20242944,     1152,     2304, 0x7082838a
0,   20269440,   20269440,     1152,     2304, 0xc6b761d1
0,   20295936,   20295936,     1152,     2304, 0x95b26bf8
0,   20322432,   20322432,     1152,     2304, 0x659278e7
0,   20348928,   20348928,     1152,     2304, 0xd07768bd
0,   20375424,   20375424,     1152,     2304, 0x510b8645
0,   20401920,   20401920,     1152,     2304, 0xba576a3a
0,   20428416,   20428416,     1152,     2304, 0x1fb68d57
0,   20454912,   20454912,     1152,     2304, 0x8a0b861f
0,   20481408,   20481408,     1152,     2304, 0xc3757007
0,   20507904,   20507904,     1152,     2304, 0x09f87c61
0,   20534400,   20534400,     1152,     2304, 0x0b6385be
0,   20560896,   20560896,     1152,     2304, 0x50c675ef
0,   20587392,   20587392,     1152,     2304, 0xbffe874a
0,   20613888,   20613888,     1152,     2304, 0xfce3656a
0,   20640384,   20640384,     1152,     2304, 0x4056780f
0,   20666880,   20666880,     1152,     2304, 0xf76773ad
0,   20693376,   20693376,     1152,     2304, 0x73a97d85
0,   20719872,   20719872,     1152,     2304, 0x628a8a26
0,   20746368,   20746368,     1152,     2304, 0x2b767d3c
0,   20772864,   20772864,     1152,     2304, 0x0d8980a7
0,   20799360,   20799360,     1152,     2304, 0xa6187839
0,   20825856,   20825856,     1152,     2304, 0xf1e69132
0,   20852352,   20852352,     1152,     2304, 0x96377535
0,   20878848,   20878848,     1152,     2304, 0x36837d94
0,   20905344,   20905344,     1152,     2304, 0x91157fd7
0,   20931840,   20931840,     1152,     2304, 0xa8517e0e
0,   20958336,   20958336,     1152,     2304, 0x593b8148
0,   20984832,   20984832,     1152,     2304, 0x41177b69
0,   21011328,   21011328,     1152,     2304, 0x8fc47e02
0,   21037824,   21037824,     1152,     2304, 0x58e37988
0,   21064320,   21064320,     1152,     2304, 0x16b17bce
0,   21090816,   21090816,     1152,     2304, 0xa44c80df
0,   21117312,   21117312,     1152,     2304, 0x34267079
0,   21143808,   21143808,     1152,     2304, 0xbf0875b9
0,   21170304,   21170304,     1152,     2304, 0x9297774c
0,   21196800,   21196800,     1152,     2304, 0x23bd58fe
0,   21223296,   21223296,     1152,     2304, 0x851c7cb1
0,   21249792,   21249792,     1152,     2304, 0x0bb8751a
0,   21276288,   21276288,     1152,     2304, 0xfbb27ce2
0,   21302784,   21302784,     1152,     2304, 0x52067a89
0,   21329280,   21329280,     1152,     2304, 0x28097ef5
0,   21355776,   21355776,     1152,     2304, 0xae1a78d6
0,   21382272,   21382272,     1152,     2304, 0x1fa572f2
0,   21408768,   21408768,     1152,     2304, 0xbcf077da
0,   21435264,   21435264,     1152,     2304, 0x81ae765b
0,   21461760,   21461760,     1152,     2304, 0x683681d9
0,   21488256,   21488256,     1152,     2304, 0x9a1d7778
0,   21514752,   21514752,     1152,     2304, 0x3b027e95
0,   21541248,   21541248,     1152,     2304, 0xcb8b9180
0,   21567744,   21567744,     1152,     2304, 0x83fa6ce3
0,   21594240,   21594240,     1152,     2304, 0xcc1593f4
0,   21620736,   21620736,     1152,     2304, 0x6c1586a3
0,   21647232,   21647232,     1152,     2304, 0x62d762fa
0,   21673728,   21673728,     1152,     2304, 0x079c785a
0,   21700224,   21700224,     1152,     2304, 0xd51680c6
0,   21726720,   21726720,     1152,     2304, 0x470178d4
0,   21753216,   21753216,     1152,     2304, 0xc1067fc6
0,   21779712,   21779712,     1152,     2304, 0x66ce8f9c
0,   21806208,   21806208,     1152,     2304, 0xb5188d12
0,   21832704,   21832704,     1152,     2304, 0xed567b53
0,   21859200,   21859200,     1152,     2304, 0x9e8e8013
0,   21885696,   21885696,     1152,     2304, 0xc80682d7
0,   21912192,   21912192,     1152,     2304, 0x07b47abe
0,   21938688,   21938688,     1152,     2304, 0x9e8f79ee
0,   21965184,   21965184,     1152,     2304, 0x086a88f1
0,   21991680,   21991680,     1152,     2304, 0xec7d739e
0,   22018176,   22018176,     1152,     2304, 0x11928a31
0,   22044672,   22044672,     1152,     2304, 0xde617bd7
0,   22071168,   22071168,     1152,     2304, 0xfedd75b5
0,   22097664,   22097664,     1152,     2304, 0xbb51743e
0,   22124160,   22124160,     1152,     2304, 0x7276899d
0,   22150656,   22150656,     1152,     2304, 0x48c37f5d
0,   22177152,   22177152,     1152,     2304, 0x62407b5c
0,   22203648,   22203648,     1152,     2304, 0x16cc7d18
0,   22230144,   22230144,     1152,     2304, 0x35a57d24
0,   22256640,   22256640,     1152,     2304, 0x77568250
0,   22283136,   22283136,     1152,     2304, 0x444e7315
0,   22309632,   22309632,     1152,     2304, 0x5177859a
0,   22336128,   22336128,     1152,     2304, 0x92b375eb
0,   22362624,   22362624,     1152,     2304, 0xd6c76e78
0,   22389120,   22389120,     1152,     2304, 0x978575cf
0,   22415616,   22415616,     1152,     2304, 0x722e71a2
0,   22442112,   22442112,     1152,     2304, 0x74db6721
0,   22468608,   22468608,     1152,     2304, 0x6b28651c
0,   22495104,   22495104,     1152,     2304, 0xfb4b8926
0,   22521600,   22521600,     1152,     2304, 0x7d7c7aa1
0,   22548096,   22548096,     1152,     2304, 0x1f568f59
0,   22574592,   22574592,     1152,     2304, 0x87088579
0,   22601088,   22601088,     1152,     2304, 0xc5877eca
0,   22627584,   22627584,     1152,     2304, 0xf65d7ad1
0,   22654080,   22654080,     1152,     2304, 0x41448cb2
0,   22680576,   22680576,     1152,     2304, 0x07507c04
0,   22707072,   22707072,     1152,     2304, 0xdcf487b0
0,   22733568,   22733568,     1152,     2304, 0x51a86f60
0,   22760064,   22760064,     1152,     2304, 0x62ff74dc
0,   22786560,   22786560,     1152,     2304, 0xf87177af
0,   22813056,   22813056,     1152,     2304, 0xe5e17ba3
0,   22839552,   22839552,     1152,     2304, 0xdeaa684a
0,   22866048,   22866048,     1152,     2304, 0xf55186b5
0,   22892544,   22892544,     1152,     2304, 0xc9d06f6b
0,   22919040,   22919040,     1152,     2304, 0x80338557
0,   22945536,   22945536,     1152,     2304, 0x2f6189db
0,   22972032,   22972032,     1152,     2304, 0x72027e56
0,   22998528,   22998528,     1152,     2304, 0x058d83c5
0,   23025024,   23025024,     1152,     2304, 0x83747a0b
0,   23051520,   23051520,     1152,     2304, 0x543d7c56
0,   23078016,   23078016,     1152,     2304, 0xd3ec869a
0,   23104512,   23104512,     1152,     2304, 0x3edb78b5
0,   23131008,   23131008,     1152,     2304, 0x744b785d
0,   23157504,   23157504,     1152,     2304, 0x59807be9
0,   23184000,   23184000,     1152,     2304, 0xd1827781
0,   23210496,   23210496,     1152,     2304, 0xd49d8542
0,   23236992,   23236992,     1152,     2304, 0x6c71814f
0,   23263488,   23263488,     1152,     2304, 0x970d8119
0,   23289984,   23289984,     1152,     2304, 0xafe48332
0,   23316480,   23316480,     1152,     2304, 0xf9ff7358
0,   23342976,   23342976,     1152,     2304, 0x74057738
0,   23369472,   23369472,     1152,     2304, 0x39827ec2
0,   23395968,   23395968,     1152,     2304, 0x92787516
0,   23422464,   23422464,     1152,     2304, 0xeb3d811d
0,   23448960,   23448960,     1152,     2304, 0x0c68712c
0,   23475456,   23475456,     1152,     2304, 0x24267e28
0,   23501952,   23501952,     1152,     2304, 0xb40177e9
0,   23528448,   23528448,     1152,     2304, 0x869b8411
0,   23554944,   23554944,     1152,     2304, 0x4dcc7220
0,   23581440,   23581440,     1152,     2304, 0x797c80e5
0,   23607936,   23607936,     1152,     2304, 0xf96587e8
0,   23634432,   23634432,     1152,     2304, 0x9a897239
0,   23660928,   23660928,     1152,     2304, 0x7df3734e
0,   23687424,   23687424,     1152,     2304, 0xc5587819
0,   23713920,   23713920,     1152,     2304, 0x9ae08a13
0,   23740416,   23740416,     1152,     2304, 0x888b7839
0,   23766912,   23766912,     1152,     2304, 0x6d2e7786
0,   23793408,   23793408,     1152,     2304, 0x483f63a1
0,   23819904,   23819904,     1152,     2304, 0x2b287baa
0,   23846400,   23846400,     1152,     2304, 0x1a148280
0,   23872896,   23872896,     1152,     2304, 0x7f3f8309
0,   23899392,   23899392,     1152,     2304, 0xdbf288b5
0,   23925888,   23925888,     1152,     2304, 0x8b977279
0,   23952384,   23952384,     1152,     2304, 0xa0f682de
0,   23978880,   23978880,     1152,     2304, 0xe5a3845c
0,   24005376,   24005376,     1152,     2304, 0x760d88bb
0,   24031872,   24031872,     1152,     2304, 0xe7905f07
0,   24058368,   24058368,     1152,     2304, 0x998588e9
0,   24084864,   24084864,     1152,     2304, 0x035f6d0e
0,   24111360,   24111360,     1152,     2304, 0xd9188282
0,   24137856,   24137856,     1152,     2304, 0x9745754a
0,   24164352,   24164352,     1152,     2304, 0xb44672f7
0,   24190848,   24190848,     1152,     2304, 0xcef38694
0,   24217344,   24217344,     1152,     2304, 0x111b7a1c
0,   24243840,   24243840,     1152,     2304, 0x8fda7f30
0,   24270336,   24270336,     1152,     2304, 0x02c77ae0
0,   24296832,   24296832,     1152,     2304, 0x6380729c
0,   24323328,   24323328,     1152,     2304, 0x79287104
0,   24349824,   24349824,     1152,     2304, 0xea0e6dec
0,   24376320,   24376320,     1152,     2304, 0xc06a786f
0,   24402816,   24402816,     1152,     2304, 0x635a7c22
0,   24429312,   24429312,     1152,     2304, 0xa9298195
0,   24455808,   24455808,     1152,     2304, 0xd17c9235
0,   24482304,   24482304,     1152,     2304, 0xb8286bd9
0,   24508800,   24508800,     1152,     2304, 0x18aa7abb
0,   24535296,   24535296,     1152,     2304, 0xa608739b
0,   24561792,   24561792,     1152,     2304, 0x207f7909
0,   24588288,   24588288,     1152,     2304, 0x25a38ba0
0,   24614784,   24614784,     1152,     2304, 0xcfab8c52
0,   24641280,   24641280,     1152,     2304, 0xae029144
0,   24667776,   24667776,     1152,     2304, 0x2df07bc7
0,   24694272,   24694272,     1152,     2304, 0x8ee17c65
0,   24720768,   24720768,     1152,     2304, 0xeb388709
0,   24747264,   24747264,     1152,     2304, 0xf63478c1
0,   24773760,   24773760,     1152,     2304, 0x70d16b08
0,   24800256,   24800256,     1152,     2304, 0xbfa76c22
0,   24826752,   24826752,     1152,     2304, 0xf27f814d
0,   24853248,   24853248,     1152,     2304, 0x7db96e3c
0,   24879744,   24879744,     1152,     2304, 0x52af770a
0,   24906240,   24906240,     1152,     2304, 0xe7cb82a7
0,   24932736,   24932736,     1152,     2304, 0xf1bc7e99
0,   24959232,   24959232,     1152,     2304, 0x40d66d78
0,   24985728,   24985728,     1152,     2304, 0xc4d67cab
0,   25012224,   25012224,     1152,     2304, 0xc81d7e86
0,   25038720,   25038720,     1152,     2304, 0x521c7021
0,   25065216,   25065216,     1152,     2304, 0x053e7417
0,   25091712,   25091712,     1152,     2304, 0x0f5b782c
0,   25118208,   25118208,     1152,     2304, 0x55ef7212
0,   25144704,   25144704,     1152,     2304, 0x01b98333
0,   25171200,   25171200,     1152,     2304, 0x02fd6ee5
0,   25197696,   25197696,     1152,     2304, 0xb19e79e6
0,   25224192,   25224192,     1152,     2304, 0xfba178da
0,   25250688,   25250688,     1152,     2304, 0x6de37c7e
0,   25277184,   25277184,     1152,     2304, 0xd32b74a1
0,   25303680,   25303680,     1152,     2304, 0xc039799b
0,   25330176,   25330176,     1152,     2304, 0x29b47df2
0,   25356672,   25356672,     1152,     2304, 0x5a7d7c85
0,   25383168,   25383168,     1152,     2304, 0x681f73ff
0,   25409664,   25409664,     1152,     2304, 0x0404800f
0,   25436160,   25436160,     1152,     2304, 0x7a817cf2
0,   25462656,   25462656,     1152,     2304, 0x7de07339
0,   25489152,   25489152,     1152,     2304, 0xe38c82fd
0,   25515648,   25515648,     1152,     2304, 0xeb2b70f8
0,   25542144,   25542144,     1152,     2304, 0xc2e97fe5
0,   25568640,   25568640,     1152,     2304, 0xadbb896d
0,   25595136,   25595136,     1152,     2304, 0xf2ef7308
0,   25621632,   25621632,     1152,     2304, 0xf8f17738
0,   25648128,   25648128,     1152,     2304, 0xf3c97f11
0,   25674624,   25674624,     1152,     2304, 0xa06877b0
0,   25701120,   25701120,     1152,     2304, 0x6cba7eeb
0,   25727616,   25727616,     1152,     2304, 0xb6d472c9
0,   25754112,   25754112,     1152,     2304, 0xb98a6dc4
0,   25780608,   25780608,     1152,     2304, 0x8cbc78e4
0,   25807104,   25807104,     1152,     2304, 0x9629662d
0,   25833600,   25833600,     1152,     2304, 0x09e479a5
0,   25860096,   25860096,     1152,     2304, 0xac557f1c
0,   25886592,   25886592,     1152,     2304, 0xc1b1750b
0,   25913088,   25913088,     1152,     2304, 0x9b7a7388
0,   25939584,   25939584,     1152,     2304, 0xe2aa82a8
0,   25966080,   25966080,     1152,     2304, 0xf7246f1e
0,   25992576,   25992576,     1152,     2304, 0xfaf78ac6
0,   26019072,   26019072,     1152,     2304, 0x8dec955f
0,   26045568,   26045568,     1152,     2304, 0xd35f6664
0,   26072064,   26072064,     1152,     2304, 0xf3078172
0,   26098560,   26098560,     1152,     2304, 0xf4018514
0,   26125056,   26125056,     1152,     2304, 0x616c74ed
0,   26151552,   26151552,     1152,     2304, 0x06807948
0,   26178048,   26178048,     1152,     2304, 0x6b776f0f
0,   26204544,   26204544,     1152,     2304, 0x7ac07cd9
0,   26231040,   26231040,     1152,     2304, 0x2ab782cc
0,   26257536,   26257536,     1152,     2304, 0xde257413
0,   26284032,   26284032,     1152,     2304, 0xb5767d82
0,   26310528,   26310528,     1152,     2304, 0x6f0f84f3
0,   26337024,   26337024,     1152,     2304, 0xee577b3e
0,   26363520,   26363520,     1152,     2304, 0xf72c93db
0,   26390016,   26390016,     1152,     2304, 0xdf877b9d
0,   26416512,   26416512,     1152,     2304, 0xa64e6c95
0,   26443008,   26443008,     1152,     2304, 0x0801738c
0,   26469504,   26469504,     1152,     2304, 0xe792906c
0,   26496000,   26496000,     1152,     2304, 0x0d5a7968
0,   26522496,   26522496,     1152,     2304, 0x436f893e
0,   26548992,   26548992,     1152,     2304, 0x2f297f83
0,   26575488,   26575488,     1152,     2304, 0x558c74ad
0,   26601984,   26601984,     1152,     2304, 0x3cfc6f94
0,   26628480,   26628480,     1152,     2304, 0xb2f38b1b
0,   26654976,   26654976,     1152,     2304, 0x1490709a
0,   26681472,   26681472,     1152,     2304, 0xa41e7e3a
0,   26707968,   26707968,     1152,     2304, 0xd4457b80
0,   26734464,   26734464,     1152,     2304, 0xc74b7a13
0,   26760960,   26760960,     1152,     2304, 0xc55b7a95
0,   26787456,   26787456,     1152,     2304, 0x5127744f
0,   26813952,   26813952,     1152,     2304, 0xac99698c
0,   26840448,   26840448,     1152,     2304, 0x652178d0
0,   26866944,   26866944,     1152,     2304, 0x84d88606
0,   26893440,   26893440,     1152,     2304, 0xaf4b83cc
0,   26919936,   26919936,     1152,     2304, 0x14877e2f
0,   26946432,   26946432,     1152,     2304, 0x871d7ceb
0,   26972928,   26972928,     1152,     2304, 0xfdf9662a
0,   26999424,   26999424,     1152,     2304, 0xbb278afb
0,   27025920,   27025920,     1152,     2304, 0xf66e8330
0,   27052416,   27052416,     1152,     2304, 0xbdc174de
0,   27078912,   27078912,     1152,     2304, 0x491a78cd
0,   27105408,   27105408,     1152,     2304, 0xe3ed7dee
0,   27131904,   27131904,     1152,     2304, 0x172e6d1c
0,   27158400,   27158400,     1152,     2304, 0x6dfc7f1f
0,   27184896,   27184896,     1152,     2304, 0x0c0381dc
0,   27211392,   27211392,     1152,     2304, 0xcca685c2
0,   27237888,   27237888,     1152,     2304, 0x95b077a3
0,   27264384,   27264384,     1152,     2304, 0xea8f75ff
0,   27290880,   27290880,     1152,     2304, 0x1d607bfc
0,   27317376,   27317376,     1152,     2304, 0xf41e78a3
0,   27343872,   27343872,     1152,     2304, 0xd3538778
0,   27370368,   27370368,     1152,     2304, 0x837d7362
0,   27396864,   27396864,     1152,     2304, 0x46a07b11
0,   27423360,   27423360,     1152,     2304, 0x0ac46f23
0,   27449856,   27449856,     1152,     2304, 0x07908207
0,   27476352,   27476352,     1152,     2304, 0x75d96d84
0,   27502848,   27502848,     1152,     2304, 0xc81577d7
0,   27529344,   27529344,     1152,     2304, 0x88fa7bd3
0,   27555840,   27555840,     1152,     2304, 0x0b257c8a
0,   27582336,   27582336,     1152,     2304, 0xc4e484c5
0,   27608832,   27608832,     1152,     2304, 0x240d7acd
0,   27635328,   27635328,     1152,     2304, 0xf4d366f6
0,   27661824,   27661824,     1152,     2304, 0xf0cb82cf
0,   27688320,   27688320,     1152,     2304, 0xb90f9128
0,   27714816,   27714816,     1152,     2304, 0x5bf17bb4
0,   27741312,   27741312,     1152,     2304, 0xed337fc6
0,   27767808,   27767808,     1152,     2304, 0x8ae679c3
0,   27794304,   27794304,     1152,     2304, 0x6aad6da1
0,   27820800,   27820800,     1152,     2304, 0x5f917480
0,   27847296,   27847296,     1152,     2304, 0xcabe7e16
0,   27873792,   27873792,     1152,     2304, 0x262e817b
0,   27900288,   27900288,     1152,     2304, 0x7b1d8d7d
0,   27926784,   27926784,     1152,     2304, 0xb3bf8845
0,   27953280,   27953280,     1152,     2304, 0x706b8667
0,   27979776,   27979776,     1152,     2304, 0x272c8a86
0,   28006272,   28006272,     1152,     2304, 0xe14a676f
0,   28032768,   28032768,     1152,     2304, 0x128a6fbe
0,   28059264,   28059264,     1152,     2304, 0xf3e77313
0,   28085760,   28085760,     1152,     2304, 0xe0e0823e
0,   28112256,   28112256,     1152,     2304, 0x384578f9
0,   28138752,   28138752,     1152,     2304, 0xf75e7889
0,   28165248,   28165248,     1152,     2304, 0xfd9a8766
0,   28191744,   28191744,     1152,     2304, 0x6de677d7
0,   28218240,   28218240,     1152,     2304, 0xd6e6773d
0,   28244736,   28244736,     1152,     2304, 0x8e2b87e3
0,   28271232,   28271232,     1152,     2304, 0x71d98058
0,   28297728,   28297728,     1152,     2304, 0xe1cf8144
0,   28324224,   28324224,     1152,     2304, 0xb9cc851c
0,   28350720,   28350720,     1152,     2304, 0x8e38758f
0,   28377216,   28377216,     1152,     2304, 0x653f6b8c
0,   28403712,   28403712,     1152,     2304, 0x7fa3721f
0,   28430208,   28430208,     1152,     2304, 0x88a46e0a
0,   28456704,   28456704,     1152,     2304, 0xa67a7c39
0,   28483200,   28483200,     1152,     2304, 0x3dc38e69
0,   28509696,   28509696,     1152,     2304, 0xa0a883ff
0,   28536192,   28536192,     1152,     2304, 0x16717a7d
0,   28562688,   28562688,     1152,     2304, 0x18ea765a
0,   28589184,   28589184,     1152,     2304, 0x28df87e4
0,   28615680,   28615680,     1152,     2304, 0x744c7dd9
0,   28642176,   28642176,     1152,     2304, 0x07eb71f3
0,   28668672,   28668672,     1152,     2304, 0xa454713c
0,   28695168,   28695168,     1152,     2304, 0xe6677e54
0,   28721664,   28721664,     1152,     2304, 0x9164761b
0,   28748160,   28748160,     1152,     2304, 0x8f836209
0,   28774656,   28774656,     1152,     2304, 0xcaad8733
0,   28801152,   28801152,     1152,     2304, 0x0e7980eb
0,   28827648,   28827648,     1152,     2304, 0x9d64818a
0,   28854144,   28854144,     1152,     2304, 0xdd5e8218
0,   28880640,   28880640,     1152,     2304, 0xa03e7a1f
0,   28907136,   28907136,     1152,     2304, 0x905f8548
0,   28933632,   28933632,     1152,     2304, 0xf21d7827
0,   28960128,   28960128,     1152,     2304, 0xdfc17e4d
0,   28986624,   28986624,     1152,     2304, 0xe64880f2
0,   29013120,   29013120,     1152,     2304, 0xf4a1796e
0,   29039616,   29039616,     1152,     2304, 0x4e087068
0,   29066112,   29066112,     1152,     2304, 0x5821807d
0,   29092608,   29092608,     1152,     2304, 0x1f0877f7
0,   29119104,   29119104,     1152,     2304, 0xafd879ab
0,   29145600,   29145600,     1152,     2304, 0xa29b8632
0,   29172096,   29172096,     1152,     2304, 0x9a267521
0,   29198592,   29198592,     1152,     2304, 0x6c078e04
0,   29225088,   29225088,     1152,     2304, 0xf67970a1
0,   29251584,   29251584,     1152,     2304, 0x64b07952
0,   29278080,   29278080,     1152,     2304, 0xe1a681d3
0,   29304576,   29304576,     1152,     2304, 0x75ce837a
0,   29331072,   29331072,     1152,     2304, 0xa8a96c2d
0,   29357568,   29357568,     1152,     2304, 0xbf447bf8
0,   29384064,   29384064,     1152,     2304, 0xb9ed7cba
0,   29410560,   29410560,     1152,     2304, 0x387e8029
0,   29437056,   29437056,     1152,     2304, 0x640f8f89
0,   29463552,   29463552,     1152,     2304, 0x16c7763a
0,   29490048,   29490048,     1152,     2304, 0x4f4377f2
0,   29516544,   29516544,     1152,     2304, 0x76187581
0,   29543040,   29543040,     1152,     2304, 0x9a088527
0,   29569536,   29569536,     1152,     2304, 0x031e7797
0,   29596032,   29596032,     1152,     2304, 0x6b915e3f
0,   29622528,   29622528,     1152,     2304, 0xffd18e7b
0,   29649024,   29649024,     1152,     2304, 0x26c18a47
0,   29675520,   29675520,     1152,     2304, 0x1c8e7ffa
0,   29702016,   29702016,     1152,     2304, 0x402686af
0,   29728512,   29728512,     1152,     2304, 0x44887473
0,   29755008,   29755008,     1152,     2304, 0x84306bcd
0,   29781504,   29781504,     1152,     2304, 0x496b860f
0,   29808000,   29808000,     1152,     2304, 0x9ad57797
0,   29834496,   29834496,     1152,     2304, 0x3b8a91d9
0,   29860992,   29860992,     1152,     2304, 0x88fc80c9
0,   29887488,   29887488,     1152,     2304, 0xfb25759d
0,   29913984,   29913984,     1152,     2304, 0x29e26da5
0,   29940480,   29940480,     1152,     2304, 0x216d7b5f
0,   29966976,   29966976,     1152,     2304, 0x7bc27353
0,   29993472,   29993472,     1152,     2304, 0xcc977bd1
0,   30019968,   30019968,     1152,     2304, 0xc5b582cc
0,   30046464,   30046464,     1152,     2304, 0xffd78099
0,   30072960,   30072960,     1152,     2304, 0x79c08321
0,   30099456,   30099456,     1152,     2304, 0xb8527f1a
0,   30125952,   30125952,     1152,     2304, 0x08d87276
0,   30152448,   30152448,     1152,     2304, 0x1ccc823b
0,   30178944,   30178944,     1152,     2304, 0xba846f03
0,   30205440,   30205440,     1152,     2304, 0xde7d6a62
0,   30231936,   30231936,     1152,     2304, 0xdc038559
0,   30258432,   30258432,     1152,     2304, 0x1d48718e
0,   30284928,   30284928,     1152,     2304, 0xdb208d08
0,   30311424,   30311424,     1152,     2304, 0xc56a754e
0,   30337920,   30337920,     1152,     2304, 0x512c788d
0,   30364416,   30364416,     1152,     2304, 0xc6769048
0,   30390912,   30390912,     1152,     2304, 0x19e27df1
0,   30417408,   30417408,     1152,     2304, 0xd89679b2
0,   30443904,   30443904,     1152,     2304, 0x2c887dd5
0,   30470400,   30470400,     1152,     2304, 0xac208201
0,   30496896,   30496896,     1152,     2304, 0xf0807594
0,   30523392,   30523392,     1152,     2304, 0x639e742f
0,   30549888,   30549888,     1152,     2304, 0xa5a27538
0,   30576384,   30576384,     1152,     2304, 0x3e917a96
0,   30602880,   30602880,     1152,     2304, 0x0ff08c2d
0,   30629376,   30629376,     1152,     2304, 0x7b1b670d
0,   30655872,   30655872,     1152,     2304, 0xc65c81a6
0,   30682368,   30682368,     1152,     2304, 0x2a8c8060
0,   30708864,   30708864,     1152,     2304, 0x1c388689
0,   30735360,   30735360,     1152,     2304, 0x37ff63c1
0,   30761856,   30761856,     1152,     2304, 0x7677728a
0,   30788352,   30788352,     1152,     2304, 0x2bdd7b4b
0,   30814848,   30814848,     1152,     2304, 0xb98c7fe0
0,   30841344,   30841344,     1152,     2304, 0xf6de6e6e
0,   30867840,   30867840,     1152,     2304, 0x746d8a58
0,   30894336,   30894336,     1152,     2304, 0x3b858023
0,   30920832,   30920832,     1152,     2304, 0x9c027618
0,   30947328,   30947328,     1152,     2304, 0x402a8197
0,   30973824,   30973824,     1152,     2304, 0xa43f7c47
0,   31000320,   31000320,     1152,     2304, 0xe67c835e
0,   31026816,   31026816,     1152,     2304, 0xf5097e6b
0,   31053312,   31053312,     1152,     2304, 0xa8357a88
0,   31079808,   31079808,     1152,     2304, 0xc3198343
0,   31106304,   31106304,     1152,     2304, 0x8e1672aa
0,   31132800,   31132800,     1152,     2304, 0xd228805a
0,   31159296,   31159296,     1152,     2304, 0xbce97800
0,   31185792,   31185792,     1152,     2304, 0x92dc7c39
0,   31212288,   31212288,     1152,     2304, 0x7dc568ad
0,   31238784,   31238784,     1152,     2304, 0xd3956e56
0,   31265280,   31265280,     1152,     2304, 0x850e788d
0,   31291776,   31291776,     1152,     2304, 0xdaf7808f
0,   31318272,   31318272,     1152,     2304, 0xcf94766b
0,   31344768,   31344768,     1152,     2304, 0x113f7ec1
0,   31371264,   31371264,     1152,     2304, 0xe47d82be
0,   31397760,   31397760,     1152,     2304, 0x30e6799e
0,   31424256,   31424256,     1152,     2304, 0x994d85dc
0,   31450752,   31450752,     1152,     2304, 0xe21674eb
0,   31477248,   31477248,     1152,     2304, 0xbb8776a6
0,   31503744,   31503744,     1152,     2304, 0x10419472
0,   31530240,   31530240,     1152,     2304, 0x7e76826c
0,   31556736,   31556736,     1152,     2304, 0x92df6d1a
0,   31583232,   31583232,     1152,     2304, 0x126882e8
0,   31609728,   31609728,     1152,     2304, 0x45c57264
0,   31636224,   31636224,     1152,     2304, 0xc89f7bbf
0,   31662720,   31662720,     1152,     2304, 0x0a0e842e
0,   31689216,   31689216,     1152,     2304, 0x15e6834f
0,   31715712,   31715712,     1152,     2304, 0x666b6d16
0,   31742208,   31742208,     1152,     2304, 0xca888397
0,   31768704,   31768704,     1152,     2304, 0x029c8723
0,   31795200,   31795200,     1152,     2304, 0x5df79862
0,   31821696,   31821696,     1152,     2304, 0x54d97b97
0,   31848192,   31848192,     1152,     2304, 0xa1da87e1
0,   31874688,   31874688,     1152,     2304, 0xb8f28696
0,   31901184,   31901184,     1152,     2304, 0x85c77936
0,   31927680,   31927680,     1152,     2304, 0x3f208ac3
0,   31954176,   31954176,     1152,     2304, 0x5e43780a
0,   31980672,   31980672,     1152,     2304, 0x4ca170ca
0,   32007168,   32007168,     1152,     2304, 0xa884818b
0,   32033664,   32033664,     1152,     2304, 0x4cfa7640
0,   32060160,   32060160,     1152,     2304, 0x2bbe7444
0,   32086656,   32086656,     1152,     2304, 0x00cc6eb0
0,   32113152,   32113152,     1152,     2304, 0xbcaf86d8
0,   32139648,   32139648,     1152,     2304, 0x78b46982
0,   32166144,   32166144,     1152,     2304, 0x9f157e05
0,   32192640,   32192640,     1152,     2304, 0x767d7901
0,   32219136,   32219136,     1152,     2304, 0x8a038c18
0,   32245632,   32245632,     1152,     2304, 0x73b57fb5
0,   32272128,   32272128,     1152,     2304, 0x2d6f85e4
0,   32298624,   32298624,     1152,     2304, 0xca637ea4
0,   32325120,   32325120,     1152,     2304, 0x6322685d
0,   32351616,   32351616,     1152,     2304, 0xcdb888bc
0,   32378112,   32378112,     1152,     2304, 0x00528aa1
0,   32404608,   32404608,     1152,     2304, 0x4e0e7b9a
0,   32431104,   32431104,     1152,     2304, 0xfc266ba9
0,   32457600,   32457600,     1152,     2304, 0x8916737e
0,   32484096,   32484096,     1152,     2304, 0x1ca076dd
0,   32510592,   32510592,     1152,     2304, 0x33807d3c
0,   32537088,   32537088,     1152,     2304, 0x016c7b5d
0,   32563584,   32563584,     1152,     2304, 0x3bd6773f
0,   32590080,   32590080,     1152,     2304, 0xf9dd6e28
0,   32616576,   32616576,     1152,     2304, 0x2c4d8345
0,   32643072,   32643072,     1152,     2304, 0x159a7fac
0,   32669568,   32669568,     1152,     2304, 0xc5207f63
0,   32696064,   32696064,     1152,     2304, 0x31069391
0,   32722560,   32722560,     1152,     2304, 0x4bd96e45
0,   32749056,   32749056,     1152,     2304, 0x8c458237
0,   32775552,   32775552,     1152,     2304, 0xdb4380d1
0,   32802048,   32802048,     1152,     2304, 0x364879b2
0,   32828544,   32828544,     1152,     2304, 0x671b71b9
0,   32855040,   32855040,     1152,     2304, 0xf1f77a57
0,   32881536,   32881536,     1152,     2304, 0xac9c8044
0,   32908032,   32908032,     1152,     2304, 0x66a88562
0,   32934528,   32934528,     1152,     2304, 0x65a38387
0,   32961024,   32961024,     1152,     2304, 0x3ca381e6
0,   32987520,   32987520,     1152,     2304, 0xec8e97b0
0,   33014016,   33014016,     1152,     2304, 0xda3671ad
0,   33040512,   33040512,     1152,     2304, 0xe8b67fed
0,   33067008,   33067008,     1152,     2304, 0x7fb87e19
0,   33093504,   33093504,     1152,     2304, 0xc35270be
0,   33120000,   33120000,     1152,     2304, 0x6de57112
0,   33146496,   33146496,     1152,     2304, 0xa2556df8
0,   33172992,   33172992,     1152,     2304, 0xd01a72cf
0,   33199488,   33199488,     1152,     2304, 0x3ba87722
0,   33225984,   33225984,     1152,     2304, 0xe95e82b8
0,   33252480,   33252480,     1152,     2304, 0x5a07688f
0,   33278976,   33278976,     1152,     2304, 0x32227af2
0,   33305472,   33305472,     1152,     2304, 0x8fa08d54
0,   33331968,   33331968,     1152,     2304, 0xa2e474d9
0,   33358464,   33358464,     1152,     2304, 0x88297204
0,   33384960,   33384960,     1152,     2304, 0x8ccc7a06
0,   33411456,   33411456,     1152,     2304, 0xf6d180b0
0,   33437952,   33437952,     1152,     2304, 0xc72c8c82
0,   33464448,   33464448,     1152,     2304, 0x5a3f8173
0,   33490944,   33490944,     1152,     2304, 0xf609808b
0,   33517440,   33517440,     1152,     2304, 0x261c7c25
0,   33543936,   33543936,     1152,     2304, 0x95626875
0,   33570432,   33570432,     1152,     2304, 0xcf897e9b
0,   33596928,   33596928,     1152,     2304, 0x6cca7f18
0,   33623424,   33623424,     1152,     2304, 0xfa017ef3
0,   33649920,   33649920,     1152,     2304, 0x50a1739d
0,   33676416,   33676416,     1152,     2304, 0x9f948411
0,   33702912,   33702912,     1152,     2304, 0x67407802
0,   33729408,   33729408,     1152,     2304, 0xd15074f4
0,   33755904,   33755904,     1152,     2304, 0xf4c28bd0
0,   33782400,   33782400,     1152,     2304, 0xe8cd71e4
0,   33808896,   33808896,     1152,     2304, 0xbb5260ff
0,   33835392,   33835392,     1152,     2304, 0xe83a8648
0,   33861888,   33861888,     1152,     2304, 0xaa287ba2
0,   33888384,   33888384,     1152,     2304, 0x54d87467
0,   33914880,   33914880,     1152,     2304, 0x15668d93
0,   33941376,   33941376,     1152,     2304, 0x331d75a9
0,   33967872,   33967872,     1152,     2304, 0xc7ee6f77
0,   33994368,   33994368,     1152,     2304, 0xaab17f67
0,   34020864,   34020864,     1152,     2304, 0x35f37fc9
0,   34047360,   34047360,     1152,     2304, 0x68818299
0,   34073856,   34073856,     1152,     2304, 0x4af17cfe
0,   34100352,   34100352,     1152,     2304, 0xef1a8080
0,   34126848,   34126848,     1152,     2304, 0x7e3c7a74
0,   34153344,   34153344,     1152,     2304, 0xfeaf78ce
0,   34179840,   34179840,     1152,     2304, 0xea6389cc
0,   34206336,   34206336,     1152,     2304, 0x9fbc6315
0,   34232832,   34232832,     1152,     2304, 0x85747b92
0,   34259328,   34259328,     1152,     2304, 0xf8d37fe6
0,   34285824,   34285824,     1152,     2304, 0x36287bf6
0,   34312320,   34312320,     1152,     2304, 0x92bf6061
0,   34338816,   34338816,     1152,     2304, 0x82199371
0,   34365312,   34365312,     1152,     2304, 0x881975ba
0,   34391808,   34391808,     1152,     2304, 0x17767d2e
0,   34418304,   34418304,     1152,     2304, 0xfada722c
0,   34444800,   34444800,     1152,     2304, 0xd3007ac8
0,   34471296,   34471296,     1152,     2304, 0x340e7f97
0,   34497792,   34497792,     1152,     2304, 0xf7017c10
0,   34524288,   34524288,     1152,     2304, 0x1a2d6dd3
0,   34550784,   34550784,     1152,     2304, 0xad0480e3
0,   34577280,   34577280,     1152,     2304, 0xd88e7b22
0,   34603776,   34603776,     1152,     2304, 0x48a77f2c
0,   34630272,   34630272,     1152,     2304, 0xbecd6ea8
0,   34656768,   34656768,     1152,     2304, 0x43db8589
0,   34683264,   34683264,     1152,     2304, 0xa00269b8
0,   34709760,   34709760,     1152,     2304, 0x86579394
0,   34736256,   34736256,     1152,     2304, 0x38ff7566
0,   34762752,   34762752,     1152,     2304, 0xe3bd732c
0,   34789248,   34789248,     1152,     2304, 0x4ee582f3
0,   34815744,   34815744,     1152,     2304, 0x9cf77049
0,   34842240,   34842240,     1152,     2304, 0x02838cd0
0,   34868736,   34868736,     1152,     2304, 0x80b972b5
0,   34895232,   34895232,     1152,     2304, 0x3aff895d
0,   34921728,   34921728,     1152,     2304, 0x9dc56ccf
0,   34948224,   34948224,     1152,     2304, 0x5bcb7411
0,   34974720,   34974720,     1152,     2304, 0xb0f38095
0,   35001216,   35001216,     1152,     2304, 0xa83c827f
0,   35027712,   35027712,     1152,     2304, 0xc15f7ea6
0,   35054208,   35054208,     1152,     2304, 0x118f73c2
0,   35080704,   35080704,     1152,     2304, 0xc64561fa
0,   35107200,   35107200,     1152,     2304, 0x7fe789a2
0,   35133696,   35133696,     1152,     2304, 0xa8a0765d
0,   35160192,   35160192,     1152,     2304, 0x9ba27926
0,   35186688,   35186688,     1152,     2304, 0x8625711f
0,   35213184,   35213184,     1152,     2304, 0x1da96de4
0,   35239680,   35239680,     1152,     2304, 0xa86d7b56
0,   35266176,   35266176,     1152,     2304, 0xfe108ae1
0,   35292672,   35292672,     1152,     2304, 0x8c3a6f23
0,   35319168,   35319168,     1152,     2304, 0x35a8884c
0,   35345664,   35345664,     1152,     2304, 0x1a5d6a5b
0,   35372160,   35372160,     1152,     2304, 0x34b67d14
0,   35398656,   35398656,     1152,     2304, 0x529f799e
0,   35425152,   35425152,     1152,     2304, 0xfe9c7d21
0,   35451648,   35451648,     1152,     2304, 0x49d981da
0,   35478144,   35478144,     1152,     2304, 0x4a747021
0,   35504640,   35504640,     1152,     2304, 0xb25371dc
0,   35531136,   35531136,     1152,     2304, 0x652e70fa
0,   35557632,   35557632,     1152,     2304, 0x5fa87cfd
0,   35584128,   35584128,     1152,     2304, 0x45d4939f
0,   35610624,   35610624,     1152,     2304, 0xbef286cd
0,   35637120,   35637120,     1152,     2304, 0x17f26c53
0,   35663616,   35663616,     1152,     2304, 0x32767810
0,   35690112,   35690112,     1152,     2304, 0xc05a7403
0,   35716608,   35716608,     1152,     2304, 0x0c446adf
0,   35743104,   35743104,     1152,     2304, 0x5e1c8728
0,   35769600,   35769600,     1152,     2304, 0x96036e5e
0,   35796096,   35796096,     1152,     2304, 0xda5380f9
0,   35822592,   35822592,     1152,     2304, 0xb2237024
0,   35849088,   35849088,     1152,     2304, 0xf7467a9d
0,   35875584,   35875584,     1152,     2304, 0x17478d56
0,   35902080,   35902080,     1152,     2304, 0x564a7078
0,   35928576,   35928576,     1152,     2304, 0xa86b6f42
0,   35955072,   35955072,     1152,     2304, 0x861981f3
0,   35981568,   35981568,     1152,     2304, 0x24977732
0,   36008064,   36008064,     1152,     2304, 0x8439738c
0,   36034560,   36034560,     1152,     2304, 0x0103616b
0,   36061056,   36061056,     1152,     2304, 0x36717c57
0,   36087552,   36087552,     1152,     2304, 0xceb97b33
0,   36114048,   36114048,     1152,     2304, 0x8a7e6960
0,   36140544,   36140544,     1152,     2304, 0x0cac67fb
0,   36167040,   36167040,     1152,     2304, 0x9cfc80a5
0,   36193536,   36193536,     1152,     2304, 0x6d51851b
0,   36220032,   36220032,     1152,     2304, 0x91978ab7
0,   36246528,   36246528,     1152,     2304, 0x057c7160
0,   36273024,   36273024,     1152,     2304, 0x6c0886ca
0,   36299520,   36299520,     1152,     2304, 0x56a17a5b
0,   36326016,   36326016,     1152,     2304, 0xc8568560
0,   36352512,   36352512,     1152,     2304, 0x7cf28429
0,   36379008,   36379008,     1152,     2304, 0x19667c48
0,   36405504,   36405504,     1152,     2304, 0x8a117772
0,   36432000,   36432000,     1152,     2304, 0x05ab7a1b
0,   36458496,   36458496,     1152,     2304, 0x2b5d7276
0,   36484992,   36484992,     1152,     2304, 0x1aaa7ae9
0,   36511488,   36511488,     1152,     2304, 0xc1b777b1
0,   36537984,   36537984,     1152,     2304, 0xad847d19
0,   36564480,   36564480,     1152,     2304, 0x172186c7
0,   36590976,   36590976,     1152,     2304, 0xf9a87146
0,   36617472,   36617472,     1152,     2304, 0x98877549
0,   36643968,   36643968,     1152,     2304, 0x83087f26
0,   36670464,   36670464,     1152,     2304, 0x6375825a
0,   36696960,   36696960,     1152,     2304, 0xb9c0846d
0,   36723456,   36723456,     1152,     2304, 0xda897d9d
0,   36749952,   36749952,     1152,     2304, 0xde0082a1
0,   36776448,   36776448,     1152,     2304, 0x20326d23
0,   36802944,   36802944,     1152,     2304, 0x3d898bb4
0,   36829440,   36829440,     1152,     2304, 0xe02d7640
0,   36855936,   36855936,     1152,     2304, 0xbcbf8477
0,   36882432,   36882432,     1152,     2304, 0xfaa96e86
0,   36908928,   36908928,     1152,     2304, 0xfc076eac
0,   36935424,   36935424,     1152,     2304, 0xdfcc6fa9
0,   36961920,   36961920,     1152,     2304, 0x3f0978a9
0,   36988416,   36988416,     1152,     2304, 0x19607178
0,   37014912,   37014912,     1152,     2304, 0xf89477c4
0,   37041408,   37041408,     1152,     2304, 0xd2487a1c
0,   37067904,   37067904,     1152,     2304, 0xb1f6846b
0,   37094400,   37094400,     1152,     2304, 0x31c37f5b
0,   37120896,   37120896,     1152,     2304, 0xdd4983d5
0,   37147392,   37147392,     1152,     2304, 0x969c7151
0,   37173888,   37173888,     1152,     2304, 0xbd6a79c2
0,   37200384,   37200384,     1152,     2304, 0x04f165f7
0,   37226880,   37226880,     1152,     2304, 0x7a2179b9
0,   37253376,   37253376,     1152,     2304, 0xf8e07d69
0,   37279872,   37279872,     1152,     2304, 0x35b17d14
0,   37306368,   37306368,     1152,     2304, 0x57b185c5
0,   37332864,   37332864,     1152,     2304, 0x72e76f76
0,   37359360,   37359360,     1152,     2304, 0x75aa6e85
0,   37385856,   37385856,     1152,     2304, 0x982278a1
0,   37412352,   37412352,     1152,     2304, 0x05e08204
0,   37438848,   37438848,     1152,     2304, 0x9f028308
0,   37465344,   37465344,     1152,     2304, 0xdbbd75d6
0,   37491840,   37491840,     1152,     2304, 0xc9197d15
0,   37518336,   37518336,     1152,     2304, 0x5d7471a6
0,   37544832,   37544832,     1152,     2304, 0x5bec7a66
0,   37571328,   37571328,     1152,     2304, 0xca886d19
0,   37597824,   37597824,     1152,     2304, 0x87947401
0,   37624320,   37624320,     1152,     2304, 0x03fd85f0
0,   37650816,   37650816,     1152,     2304, 0x58c366d4
0,   37677312,   37677312,     1152,     2304, 0x77de68bc
0,   37703808,   37703808,     1152,     2304, 0x286e7886
0,   37730304,   37730304,     1152,     2304, 0x4d8d770c
0,   37756800,   37756800,     1152,     2304, 0x64c3794d
0,   37783296,   37783296,     1152,     2304, 0x949b8acb
0,   37809792,   37809792,     1152,     2304, 0xa8267502
0,   37836288,   37836288,     1152,     2304, 0x95c375c4
0,   37862784,   37862784,     1152,     2304, 0xa7087c27
0,   37889280,   37889280,     1152,     2304, 0xec477de7
0,   37915776,   37915776,     1152,     2304, 0xd57b7ab8
0,   37942272,   37942272,     1152,     2304, 0xf21a8a64
0,   37968768,   37968768,     1152,     2304, 0x0c9f7d43
0,   37995264,   37995264,     1152,     2304, 0xa4bf7f96
0,   38021760,   38021760,     1152,     2304, 0xe3e87f26
0,   38048256,   38048256,     1152,     2304, 0x49bd7d42
0,   38074752,   38074752,     1152,     2304, 0xfee57c53
0,   38101248,   38101248,     1152,     2304, 0x09158088
0,   38127744,   38127744,     1152,     2304, 0x3355875a
0,   38154240,   38154240,     1152,     2304, 0x8e3771c5
0,   38180736,   38180736,     1152,     2304, 0xb7ff7c51
0,   38207232,   38207232,     1152,     2304, 0xe88573a2
0,   38233728,   38233728,     1152,     2304, 0x37057de4
0,   38260224,   38260224,     1152,     2304, 0x85d89175
0,   38286720,   38286720,     1152,     2304, 0xe9226df5
0,   38313216,   38313216,     1152,     2304, 0xd8f78a88
0,   38339712,   38339712,     1152,     2304, 0x4b5f8262
0,   38366208,   38366208,     1152,     2304, 0x1da17285
0,   38392704,   38392704,     1152,     2304, 0x1b166eee
0,   38419200,   38419200,     1152,     2304, 0xfc898312
0,   38445696,   38445696,     1152,     2304, 0x7c7170d7
0,   38472192,   38472192,     1152,     2304, 0xa77d7c7d
0,   38498688,   38498688,     1152,     2304, 0x9bb27ed6
0,   38525184,   38525184,     1152,     2304, 0xaebc6c8e
0,   38551680,   38551680,     1152,     2304, 0x852a7d14
0,   38578176,   38578176,     1152,     2304, 0x6fe57742
0,   38604672,   38604672,     1152,     2304, 0xca4d7dc8
0,   38631168,   38631168,     1152,     2304, 0x0ca4816d
0,   38657664,   38657664,     1152,     2304, 0xc99b9d10
0,   38684160,   38684160,     1152,     2304, 0xe892706e
0,   38710656,   38710656,     1152,     2304, 0xb8867fe4
0,   38737152,   38737152,     1152,     2304, 0xabc599b6
0,   38763648,   38763648,     1152,     2304, 0xfb4083f0
0,   38790144,   38790144,     1152,     2304, 0xe873696a
0,   38816640,   38816640,     1152,     2304, 0x89ab80cb
0,   38843136,   38843136,     1152,     2304, 0x89707a89
0,   38869632,   38869632,     1152,     2304, 0x85987620
0,   38896128,   38896128,     1152,     2304, 0xbbe27bbe
0,   38922624,   38922624,     1152,     2304, 0xc8d284d3
0,   38949120,   38949120,     1152,     2304, 0x9e507c80
0,   38975616,   38975616,     1152,     2304, 0xb45f71a1
0,   39002112,   39002112,     1152,     2304, 0x1c6178b9
0,   39028608,   39028608,     1152,     2304, 0x7c9f8e75
0,   39055104,   39055104,     1152,     2304, 0xff667d90
0,   39081600,   39081600,     1152,     2304, 0x32649250
0,   39108096,   39108096,     1152,     2304, 0x8d707f97
0,   39134592,   39134592,     1152,     2304, 0x33cb8f0e
0,   39161088,   39161088,     1152,     2304, 0xecb68117
0,   39187584,   39187584,     1152,     2304, 0x65b87bfe
0,   39214080,   39214080,     1152,     2304, 0x71aa8436
0,   39240576,   39240576,     1152,     2304, 0x3fbd9120
0,   39267072,   39267072,     1152,     2304, 0xddfe6cb0
0,   39293568,   39293568,     1152,     2304, 0xcef18297
0,   39320064,   39320064,     1152,     2304, 0xa36071c6
0,   39346560,   39346560,     1152,     2304, 0xc1448088
0,   39373056,   39373056,     1152,     2304, 0x54d97cfe
0,   39399552,   39399552,     1152,     2304, 0xc3417d10
0,   39426048,   39426048,     1152,     2304, 0x77e17b88
0,   39452544,   39452544,     1152,     2304, 0xefae8885
0,   39479040,   39479040,     1152,     2304, 0x2e2f76be
0,   39505536,   39505536,     1152,     2304, 0xb7b77665
0,   39532032,   39532032,     1152,     2304, 0xb65e839b
0,   39558528,   39558528,     1152,     2304, 0xad1d7107
0,   39585024,   39585024,     1152,     2304, 0x52588204
0,   39611520,   39611520,     1152,     2304, 0xb965719e
0,   39638016,   39638016,     1152,     2304, 0x32ec84e9
0,   39664512,   39664512,     1152,     2304, 0xdff57a81
0,   39691008,   39691008,     1152,     2304, 0x817b7747
0,   39717504,   39717504,     1152,     2304, 0x1abe6dc3
0,   39744000,   39744000,     1152,     2304, 0x9ef47fb6
0,   39770496,   39770496,     1152,     2304, 0xe06270c8
0,   39796992,   39796992,     1152,     2304, 0x768c8c8c
0,   39823488,   39823488,     1152,     2304, 0x0f077d76
0,   39849984,   39849984,     1152,     2304, 0xdef16e42
0,   39876480,   39876480,     1152,     2304, 0x301b8c9d
0,   39902976,   39902976,     1152,     2304, 0xc2fc7419
0,   39929472,   39929472,     1152,     2304, 0xecf485c3
0,   39955968,   39955968,     1152,     2304, 0xbde8808b
0,   39982464,   39982464,     1152,     2304, 0x73d3838c
0,   40008960,   40008960,     1152,     2304, 0x200d6ebb
0,   40035456,   40035456,     1152,     2304, 0x3f207544
0,   40061952,   40061952,     1152,     2304, 0xe56c8212
0,   40088448,   40088448,     1152,     2304, 0xa67f8098
0,   40114944,   40114944,     1152,     2304, 0xd8637fd8
0,   40141440,   40141440,     1152,     2304, 0xbcfd9598
0,   40167936,   40167936,     1152,     2304, 0xf3927a90
0,   40194432,   40194432,     1152,     2304, 0x86ad7529
0,   40220928,   40220928,     1152,     2304, 0x05946a31
0,   40247424,   40247424,     1152,     2304, 0xda2e80d8
0,   40273920,   40273920,     1152,     2304, 0x7c16814a
0,   40300416,   40300416,     1152,     2304, 0x76877c1c
0,   40326912,   40326912,     1152,     2304, 0xa79b7c2b
0,   40353408,   40353408,     1152,     2304, 0x57a682d4
0,   40379904,   40379904,     1152,     2304, 0xf36c82dc
0,   40406400,   40406400,     1152,     2304, 0x928a845f
0,   40432896,   40432896,     1152,     2304, 0x16ea9096
0,   40459392,   40459392,     1152,     2304, 0x2c0c776d
0,   40485888,   40485888,     1152,     2304, 0x1df47832
0,   40512384,   40512384,     1152,     2304, 0xd6986d91
0,   40538880,   40538880,     1152,     2304, 0x766c838b
0,   40565376,   40565376,     1152,     2304, 0x989f60d2
